<svg width="16" height="16" viewBox="0 0 16 16" fill="none" xmlns="http://www.w3.org/2000/svg">
<path d="M6.80469 1.10547L7.57812 0.332031C7.92969 0.015625 8.45703 0.015625 8.77344 0.332031L15.6289 7.15234C15.9453 7.50391 15.9453 8.03125 15.6289 8.34766L8.77344 15.2031C8.45703 15.5195 7.92969 15.5195 7.57812 15.2031L6.80469 14.4297C6.48828 14.0781 6.48828 13.5508 6.80469 13.1992L11.0586 9.15625H0.96875C0.476562 9.15625 0.125 8.80469 0.125 8.3125V7.1875C0.125 6.73047 0.476562 6.34375 0.96875 6.34375H11.0586L6.80469 2.33594C6.48828 1.98438 6.45312 1.45703 6.80469 1.10547Z" fill="white"/>
</svg>
