<svg width="16" height="16" viewBox="0 0 16 16" fill="none" xmlns="http://www.w3.org/2000/svg">
<path d="M9.19531 1.10547L8.42188 0.332031C8.07031 0.015625 7.54297 0.015625 7.22656 0.332031L0.371094 7.15234C0.0546875 7.50391 0.0546875 8.03125 0.371094 8.34766L7.22656 15.2031C7.54297 15.5195 8.07031 15.5195 8.42188 15.2031L9.19531 14.4297C9.51172 14.0781 9.51172 13.5508 9.19531 13.1992L4.94141 9.15625H15.0312C15.5234 9.15625 15.875 8.80469 15.875 8.3125V7.1875C15.875 6.73047 15.5234 6.34375 15.0312 6.34375H4.94141L9.19531 2.33594C9.51172 1.98438 9.54688 1.45703 9.19531 1.10547Z" fill="#B0B0B0"/>
</svg>
