<svg width="16" height="16" viewBox="0 0 16 16" fill="none" xmlns="http://www.w3.org/2000/svg">
<path fill-rule="evenodd" clip-rule="evenodd" d="M15.8033 0.195823C15.8654 0.25774 15.9147 0.331294 15.9483 0.412273C15.9819 0.493252 15.9992 0.580064 15.9992 0.667738C15.9992 0.755412 15.9819 0.842225 15.9483 0.923204C15.9147 1.00418 15.8654 1.07774 15.8033 1.13965L1.1393 15.8037C1.01414 15.9288 0.844391 15.9992 0.667389 15.9992C0.490386 15.9992 0.320633 15.9288 0.195473 15.8037C0.0703138 15.6785 0 15.5088 0 15.3318C0 15.1548 0.0703138 14.985 0.195473 14.8599L14.8595 0.195823C14.9214 0.13375 14.995 0.0845018 15.076 0.0508992C15.1569 0.0172967 15.2437 0 15.3314 0C15.4191 0 15.5059 0.0172967 15.5869 0.0508992C15.6679 0.0845018 15.7414 0.13375 15.8033 0.195823Z" fill="black"/>
<path fill-rule="evenodd" clip-rule="evenodd" d="M1.17625 0.195823C1.12038 0.25774 1.07605 0.331294 1.04581 0.412273C1.01557 0.493252 1 0.580064 1 0.667738C1 0.755412 1.01557 0.842225 1.04581 0.923204C1.07605 1.00418 1.12038 1.07774 1.17625 1.13965L14.3744 15.8037C14.487 15.9288 14.6398 15.9992 14.7991 15.9992C14.9584 15.9992 15.1112 15.9288 15.2238 15.8037C15.3365 15.6785 15.3998 15.5088 15.3998 15.3318C15.3998 15.1548 15.3365 14.985 15.2238 14.8599L2.02573 0.195823C1.97 0.13375 1.9038 0.0845018 1.83091 0.0508992C1.75803 0.0172967 1.6799 0 1.60099 0C1.52208 0 1.44394 0.0172967 1.37106 0.0508992C1.29818 0.0845018 1.23197 0.13375 1.17625 0.195823Z" fill="black"/>
</svg>
