<svg width="282" height="222" viewBox="0 0 282 222" fill="none" xmlns="http://www.w3.org/2000/svg">
<path d="M62.0178 95.3667L70.0166 90.752C69.1781 87.6092 67.9294 84.6353 66.3309 81.8906L57.4272 84.2794L50.7555 77.6077L53.1323 68.7282C50.3815 67.1356 47.4016 65.887 44.2527 65.0605L39.6622 73.0111H30.2157L25.6492 65.1028C22.5004 65.9473 19.5204 67.202 16.7637 68.8126L19.1223 77.6077L12.4506 84.2733L3.68572 81.9268C2.08113 84.6835 0.832454 87.6755 0 90.8304L7.85402 95.3667V104.807L0 109.343C0.832454 112.504 2.08717 115.49 3.69175 118.247L12.4506 115.901L19.1223 122.572L16.7697 131.361C19.5204 132.972 22.5004 134.227 25.6553 135.071L30.2157 127.169H39.6562L44.2407 135.107C47.3895 134.281 50.3695 133.032 53.1262 131.44L50.7495 122.572L57.4212 115.901L66.3188 118.283C67.9174 115.539 69.1721 112.565 70.0105 109.422L62.0178 104.807V95.3667ZM35.0053 119.659C24.1954 119.659 15.4245 110.894 15.4245 100.078C15.4245 89.2681 24.1894 80.4971 35.0053 80.4971C45.8151 80.4971 54.586 89.262 54.586 100.078C54.586 110.894 45.8211 119.659 35.0053 119.659Z" fill="#F5F5F5"/>
<path d="M156.448 221.049C225.78 221.049 281.985 213.906 281.985 205.094C281.985 196.282 225.78 189.139 156.448 189.139C87.1153 189.139 30.9102 196.282 30.9102 205.094C30.9102 213.906 87.1153 221.049 156.448 221.049Z" fill="#F5F5F5"/>
<path d="M61.8066 100.083V91.0889C61.8066 86.9568 65.7638 83.6088 70.6379 83.6088H162.166L168.554 72.431C169.344 71.0497 171.003 70.1689 172.819 70.1689H194.299C196.917 70.1689 199.035 71.9666 199.035 74.1804V190.567C198.932 191.671 198.474 195.085 195.693 197.981C191.838 201.992 186.657 201.751 185.878 201.703H61.8066V100.083Z" fill="#E7E7E7"/>
<path d="M164.403 95.0276L151.114 80.9905L149.395 88.8928L135.333 74.536L132.317 81.9135L121.875 69.0406L112.912 73.981L105.124 60.5291L96.6123 67.3154L85.4707 54.8225C94.0365 36.0441 104.279 21.9467 112.308 12.4277C140.081 23.7805 167.853 35.1332 195.626 46.4859C187.537 60.4265 179.14 76.786 171.376 95.4921L164.403 95.0276Z" fill="#F5F5F5"/>
<path d="M105.769 63.429L113.557 76.881L122.521 71.9405L132.963 84.8134L135.979 77.4359L150.04 91.7928L151.759 83.8905L165.048 97.9276L172.015 98.3921C171.913 98.6454 171.804 98.8867 171.702 99.1401C163.413 119.215 157.544 137.934 153.328 154.444L70.0098 120.386C71.0654 106.403 74.2082 85.9837 83.7272 63.1817C84.5053 61.3177 85.3016 59.502 86.1099 57.7285L97.2515 70.2214L105.769 63.429Z" fill="#F5F5F5"/>
<path d="M171.37 95.4927L164.403 95.0282L151.113 80.9911L149.394 88.8934L135.333 74.5366L132.317 81.9141L121.875 69.0352" stroke="#262626" stroke-width="0.318778" stroke-miterlimit="10" stroke-linecap="round" stroke-linejoin="round"/>
<path d="M172.022 98.3871L165.055 97.9286L151.766 83.8855L150.047 91.7938L135.985 77.437L132.969 84.8084L122.527 71.9355" stroke="#262626" stroke-width="0.318778" stroke-miterlimit="10" stroke-linecap="round" stroke-linejoin="round"/>
<path d="M28.9169 28.3127C26.7212 28.7772 25.3156 30.9307 25.7801 33.1265C30.8774 47.9116 35.8058 64.7959 39.8414 83.6045C44.1424 103.656 46.6216 122.163 47.9849 138.571C48.0392 138.836 48.365 140.236 49.7403 141.134C50.609 141.701 51.7008 141.937 52.7926 141.707L129.583 125.535C131.779 125.07 133.185 122.917 132.72 120.721C131.749 105.478 129.505 87.7728 124.927 68.4153C121.796 55.1925 118.062 43.2366 114.177 32.6499C105.298 27.0882 96.418 21.5325 87.5385 15.9707L28.9169 28.3127Z" fill="#F5F5F5"/>
<path d="M94.6309 36.7727L114.181 32.6587L87.543 15.9795L91.4881 34.7278C91.7897 36.1574 93.1952 37.0743 94.6309 36.7727Z" fill="#D6D6D6"/>
<path d="M87.5391 15.9707L91.4842 34.719C91.7858 36.1547 93.1973 37.0716 94.627 36.77L114.178 32.656" stroke="#262626" stroke-width="0.318778" stroke-miterlimit="10" stroke-linecap="round" stroke-linejoin="round"/>
<path d="M79.617 89.2281C79.05 86.5438 78.8027 84.336 78.863 82.6107C78.9294 80.8855 79.4059 79.2146 80.3047 77.5979C80.8175 76.6328 81.4388 75.7641 82.1807 74.992C82.9227 74.2199 83.5863 73.4236 84.1774 72.6092C84.7686 71.7949 85.2271 70.9262 85.5528 70.0033C85.8785 69.0804 85.9087 67.9584 85.6312 66.6373C85.1607 64.4053 84.2197 62.9757 82.8021 62.3483C81.3845 61.721 79.8342 61.5822 78.1512 61.9381C75.7383 62.4449 74.2182 63.4703 73.5908 65.0025C72.9634 66.5408 72.7764 68.4651 73.0238 70.7935L64.2106 72.6515C63.7401 70.4195 63.6798 68.3203 64.0236 66.3417C64.3675 64.3692 65.0793 62.6017 66.153 61.0454C67.2268 59.489 68.6383 58.168 70.3816 57.0882C72.125 56.0084 74.1397 55.2242 76.4139 54.7477C81.3302 53.7101 85.4261 53.8971 88.6896 55.3026C91.9591 56.7082 94.0643 59.664 95.0174 64.1701C95.3251 65.6299 95.4457 66.9329 95.3794 68.0911C95.313 69.2493 95.0778 70.329 94.6736 71.3425C94.2694 72.3559 93.7145 73.3391 93.0147 74.2983C92.315 75.2574 91.5006 76.2588 90.5837 77.3084C89.7452 78.2916 89.0877 79.1844 88.6112 79.9686C88.1346 80.7588 87.8149 81.5491 87.652 82.3453C87.4892 83.1416 87.4409 83.9499 87.5193 84.7643C87.5977 85.5786 87.7425 86.4895 87.9536 87.4909L79.617 89.2281ZM82.1204 102.463L80.2384 93.5171L89.4557 91.5747L91.3377 100.521L82.1204 102.463Z" fill="#D6D6D6"/>
<path d="M28.9169 28.3127C26.7212 28.7772 25.3156 30.9307 25.7801 33.1265C30.8774 47.9116 35.8058 64.7959 39.8414 83.6045C44.1424 103.656 46.6216 122.163 47.9849 138.571C48.0392 138.836 48.365 140.236 49.7403 141.134C50.609 141.701 51.7008 141.937 52.7926 141.707L129.583 125.535C131.779 125.07 133.185 122.917 132.72 120.721C131.749 105.478 129.505 87.7728 124.927 68.4153C121.796 55.1925 118.062 43.2366 114.177 32.6499C105.298 27.0882 96.418 21.5325 87.5385 15.9707L28.9169 28.3127Z" stroke="#262626" stroke-width="0.318778" stroke-miterlimit="10" stroke-linecap="round" stroke-linejoin="round"/>
<path d="M36.6585 100.091H171.438C174.954 100.091 178.308 102.944 178.924 106.461L194.439 195.334C195.054 198.851 192.695 201.704 189.178 201.704H54.3994C50.8826 201.704 47.5287 198.851 46.9134 195.334L31.3984 106.461C30.7831 102.944 33.1417 100.091 36.6585 100.091Z" fill="#AD66E6"/>
<path d="M199.979 38.2194L205.691 36.3916L214.836 39.0217L214.601 40.3367H208.442L204.822 43.944L201.674 44.5714L199.979 38.2194Z" fill="#F7A99C"/>
<path d="M205.029 37.6732C206.591 36.8106 210.56 34.9044 215.266 35.8274C216.713 36.1109 219.362 36.6357 221.026 38.8676C221.919 40.068 222.167 41.2685 222.366 42.2819C222.927 45.1834 221.967 46.3416 221.949 51.1795C221.943 52.9892 222.076 53.6889 222.504 54.3585C223.331 55.6554 224.368 55.4322 226.148 56.6628C226.395 56.8317 228.899 58.6173 229.93 61.6394C230.666 63.805 229.9 64.4203 230.763 65.6026C232.09 67.4365 234.406 66.6462 235.558 68.1845C236.903 69.976 235.383 73.2093 235.19 73.6256C231.511 81.4736 208.286 85.2437 198.261 75.1035C197.911 74.7476 192.156 68.8058 193.833 64.6857C194.798 62.309 197.893 61.374 197.893 58.5992C197.893 57.3988 197.314 57.3324 197.018 55.2814C196.807 53.8156 196.523 51.843 197.525 50.2565C198.689 48.4107 200.613 48.652 200.945 47.168C201.21 46.0038 200.131 45.3825 199.932 44.1398C199.702 42.8007 200.499 40.7557 205.029 37.6732Z" fill="#262626"/>
<path d="M220.594 38.6719C221.879 39.9206 223.381 41.8207 223.706 44.3181C224.159 47.8228 221.891 49.4335 222.874 51.9067C223.779 54.1748 225.932 53.4148 228.774 56.63C229.66 57.6313 231.603 59.821 232.001 62.9457C232.333 65.5577 231.373 67.1201 232.459 68.1094C232.459 68.1094 232.803 68.423 235.946 69.0082" stroke="#262626" stroke-width="0.581713" stroke-miterlimit="10" stroke-linecap="round" stroke-linejoin="round"/>
<path d="M199.679 48.5059C198.141 49.1935 196.18 50.3759 195.577 52.3846C194.853 54.7915 196.82 55.9557 196.41 58.7004C195.867 62.3198 191.759 62.5912 191.843 65.9874C191.891 67.7367 192.47 69.2267 194.425 71.7965C196.036 73.9198 197.857 74.9031 198.249 75.1142C198.919 75.4701 199.516 75.7054 199.956 75.8501" stroke="#262626" stroke-width="0.581713" stroke-miterlimit="10" stroke-linecap="round" stroke-linejoin="round"/>
<path d="M199.678 37.082C185.092 37.1484 174.421 43.3194 173.54 49.973C172.653 56.6507 181.611 63.992 185.345 67.0504C189.326 70.3138 193.151 72.2864 195.811 73.4506L207.079 61.4645L189.314 52.03L202.139 46.2933L199.678 37.082Z" fill="#9846D7"/>
<path d="M215.15 61.4735C213.949 61.4735 212.743 61.4735 211.542 61.4735C210.052 61.4735 208.562 61.4735 207.072 61.4735C204.846 62.7886 201.631 65.0989 199.055 68.9053C196.069 73.3149 195.285 77.7365 194.736 83.6723C194.133 90.2535 193.874 99.8207 194.875 111.179L235.466 110.854C235.466 103.844 235.466 96.8287 235.466 89.8192C235.267 84.5108 234.64 80.1494 234.055 76.9644C233.102 71.8249 232.317 70.2203 231.473 68.9716C229.072 65.4126 225.646 63.8804 224.095 63.1927C220.458 61.57 217.14 61.4011 215.15 61.4735Z" fill="#FFC001"/>
<path d="M211.114 64.7409C213.382 64.7469 215.228 62.9191 215.24 60.645L215.276 51.8016L207.054 51.7715L207.018 60.6148C207.006 62.889 208.839 64.7348 211.114 64.7409Z" fill="#F7A99C"/>
<path d="M207.024 58.1404L212.374 55.3896C212.32 55.8541 212.018 58.0258 210.106 59.5218C208.888 60.4809 207.603 60.698 207.012 60.7584L207.024 58.1404Z" fill="#FF7769"/>
<path d="M215.47 49.0639C215.494 48.9312 215.85 48.7261 215.959 48.6598C216.14 48.5451 216.339 48.4486 216.544 48.3823C216.942 48.2556 217.388 48.2254 217.799 48.3159C218.619 48.5029 219.343 49.1906 219.482 50.0351C219.56 50.5237 219.445 51.0304 219.24 51.4829C218.927 52.1585 218.39 52.7255 217.744 53.0995C217.207 53.4072 216.598 53.5821 215.983 53.6183C215.862 53.6243 214.595 53.5942 214.608 53.5459C214.891 52.0559 215.181 50.5599 215.47 49.0639Z" fill="#F7A99C"/>
<path d="M216.597 49.1459C216.5 49.8034 215.921 53.284 212.784 55.7452C212.205 56.1976 208.362 59.2077 204.846 57.7419C200.327 55.8538 200.822 48.4341 200.852 48.0299C200.961 46.6726 201.275 42.6732 204.592 40.5378C207.295 38.7945 210.226 39.4339 210.643 39.5365C211.083 39.639 213.87 40.3448 215.577 43.0774C217.127 45.5567 216.753 48.0661 216.597 49.1459Z" fill="#F7A99C"/>
<path d="M203.419 48.037C203.347 48.6161 202.9 49.0383 202.424 48.978C201.947 48.9177 201.615 48.3989 201.688 47.8198C201.76 47.2407 202.206 46.8185 202.683 46.8788C203.166 46.9391 203.491 47.4579 203.419 48.037Z" fill="#262626"/>
<path d="M208.636 48.6913C208.563 49.2704 208.117 49.6926 207.64 49.6323C207.164 49.572 206.832 49.0532 206.904 48.4741C206.977 47.895 207.423 47.4728 207.9 47.5331C208.382 47.5934 208.708 48.1122 208.636 48.6913Z" fill="#262626"/>
<path d="M204.991 48.9092L204.189 49.989C204.044 50.188 204.098 50.4715 204.309 50.5982L205.045 51.0446" stroke="#262626" stroke-width="0.829638" stroke-miterlimit="10" stroke-linecap="round" stroke-linejoin="round"/>
<path d="M210.391 51.4257C210.306 52.0772 209.715 52.5356 209.064 52.4572C208.412 52.3727 207.954 51.7816 208.032 51.1301C208.117 50.4786 208.708 50.0202 209.359 50.0986C210.011 50.183 210.469 50.7742 210.391 51.4257Z" fill="#FF7769"/>
<path d="M216.023 52.0372C216.017 51.9045 216.011 51.0238 216.716 50.3904C217.271 49.8897 217.917 49.8595 218.092 49.8535" stroke="#262626" stroke-width="0.829638" stroke-miterlimit="10" stroke-linecap="round" stroke-linejoin="round"/>
<path d="M216.645 50.5623C216.687 50.5562 217.157 50.4899 217.489 50.8518C217.76 51.1474 217.736 51.5093 217.73 51.5697" stroke="#262626" stroke-width="0.829638" stroke-miterlimit="10" stroke-linecap="round" stroke-linejoin="round"/>
<path d="M201.467 49.5546C201.244 49.5245 201.027 49.5667 200.834 49.6512C200.858 50.2906 200.918 51.0627 201.057 51.8771C201.093 51.8831 201.13 51.9012 201.172 51.9012C201.823 51.9856 202.414 51.5212 202.499 50.8697C202.577 50.2303 202.119 49.6391 201.467 49.5546Z" fill="#FF7769"/>
<path d="M200.038 43.0757C199.881 43.5764 199.839 44.1253 200.026 44.6139C200.213 45.1025 200.629 45.4946 201.124 45.6575C201.757 45.8626 202.523 45.6997 202.916 45.1387C202.916 45.1387 203.109 45.5187 203.639 45.6394C204.17 45.76 204.773 45.1447 204.779 45.1387C204.755 45.1628 205.268 45.5248 205.322 45.5429C205.485 45.5911 205.66 45.561 205.817 45.5006C205.901 45.4645 206.529 45.2051 206.529 45.0905C206.529 45.5006 207.367 45.3016 207.53 45.187C207.633 45.1146 208.019 44.8311 208.019 44.6923C208.019 44.6923 208.001 45.4524 208.483 45.5368C208.966 45.6213 209.708 44.8793 209.708 44.8793C209.708 44.8793 210.022 45.6032 210.311 45.6213C210.607 45.6394 211.294 45.0362 211.294 45.0362C211.294 45.0362 211.361 45.1387 211.711 45.4524C212.054 45.7661 212.73 45.0362 212.73 45.0362L215.39 49.6689C215.39 49.6689 215.354 49.0235 215.752 48.74C216.15 48.4565 216.687 48.3358 216.687 48.3358C216.826 48.191 216.85 47.6843 216.88 47.4913C216.928 47.1836 216.959 46.87 216.965 46.5563C216.971 45.9893 216.898 45.4162 216.729 44.8733C216.404 43.8056 215.746 42.8706 215.004 42.0562C213.442 40.337 211.385 38.9798 209.099 38.461C208.302 38.28 207.482 38.1956 206.668 38.2257C205.491 38.2679 204.405 38.6781 203.392 39.2693C201.932 40.1259 200.575 41.3987 200.038 43.0757Z" fill="#262626"/>
<path d="M204.96 53.628L207.609 52.9946C207.446 52.2466 206.734 51.7701 206.04 51.8907C205.286 52.0174 204.755 52.8136 204.96 53.628Z" fill="white"/>
<path d="M224.735 83.544C218.473 93.3706 211.741 97.9852 206.807 100.374C196.546 105.339 177.695 108.584 175.451 109.839C174.655 110.285 174.196 110.339 173.273 110.448C172.948 110.484 172.423 110.526 171.977 110.219C171.856 110.134 171.639 109.989 171.578 109.742C171.47 109.308 171.862 108.747 171.862 108.747C171.771 108.819 171.464 109.03 171.029 109.024C170.903 109.024 170.462 108.994 170.167 108.674C169.823 108.306 169.787 107.667 170.101 107.118C169.497 107.679 168.677 107.673 168.285 107.275C168.031 107.016 167.893 106.533 168.08 106.117C168.206 105.827 168.448 105.676 168.544 105.622C168.321 105.682 167.718 105.821 167.139 105.52C166.976 105.435 166.704 105.29 166.578 104.989C166.391 104.542 166.668 104.078 166.716 103.993C166.988 103.535 167.452 103.372 168.255 103.113C169.895 102.582 171.669 102.075 171.669 102.075L168.466 100.772C168.044 100.362 167.863 99.7949 168.025 99.3546C168.267 98.7212 169.238 98.3231 170.149 98.7875C172.224 99.2942 174.299 99.801 176.368 100.308C176.368 100.308 178.413 100.73 180.126 100.452C181.839 100.175 194.543 92.9061 197.053 90.9818C199.562 89.0575 210.414 78.875 210.414 78.875L224.735 83.544Z" fill="#F7A99C"/>
<path d="M197.642 111.176C197.642 111.176 187.127 146.151 186.512 151.194C185.897 156.237 190.632 195.719 190.632 195.719H205.086L212.71 156.605C212.71 156.605 213.694 163.615 218.369 168.537C223.044 173.46 240.139 190.434 240.139 190.434L250.961 179.854L237.925 155.99C237.189 150.917 236.797 146.628 236.58 143.407C236.23 138.316 236.061 135.77 236.315 132.754C236.839 126.631 238.209 125.581 238.1 121.413C238.034 118.861 237.413 115.224 234.801 110.851C222.41 110.959 210.026 111.068 197.642 111.176Z" fill="#C490F0"/>
<path d="M204.014 195.717V210.393H180.482L181.098 206.171C181.098 206.171 188.475 202.033 189.627 201.086C190.773 200.144 192.004 198.299 192.251 197.726C192.499 197.152 192.251 195.717 192.251 195.717H204.014Z" fill="#F7A99C"/>
<path d="M205.209 201.255C204.92 201.177 204.485 201.105 204.021 201.237C202.814 201.581 202.501 202.975 201.982 203.717L188.482 203.867C188.512 203.186 188.536 202.498 188.566 201.816C187.866 201.587 187.161 201.358 186.461 201.135C184.989 202.776 183.559 203.729 182.473 204.308C180.815 205.194 178.655 205.894 177.78 207.39C177.352 208.114 177.334 208.856 177.328 208.989C177.322 209.369 177.31 209.906 177.696 210.256C177.979 210.521 178.347 210.557 178.516 210.563C187.227 210.509 195.944 210.455 204.654 210.4C204.962 210.4 205.209 210.153 205.209 209.845V201.255Z" fill="#9846D7"/>
<path d="M178.485 212.077H204.17C204.743 212.077 205.208 211.613 205.208 211.04V209.888H177.447V211.04C177.447 211.613 177.912 212.077 178.485 212.077Z" fill="#5D1113"/>
<path opacity="0.5" d="M200.674 102.3L200.825 108.199C202.556 107.337 204.305 106.456 206.067 105.545C207.81 104.646 209.523 103.748 211.206 102.843C211.206 101.25 211.206 99.6638 211.206 98.0713L200.674 102.3Z" fill="#E5A300"/>
<path d="M250.722 180.084L260.971 190.592L244.117 207.018L241.607 203.568C241.607 203.568 244.002 195.448 244.165 193.976C244.328 192.498 243.924 190.321 243.695 189.736C243.471 189.15 242.295 188.3 242.295 188.3L250.722 180.084Z" fill="#F7A99C"/>
<path d="M255.44 183.22C255.181 183.365 254.819 183.612 254.571 184.034C253.95 185.12 254.698 186.338 254.843 187.231L245.282 196.762C244.823 196.249 244.365 195.743 243.906 195.236C243.243 195.562 242.579 195.888 241.922 196.219C242.012 198.421 241.656 200.104 241.282 201.274C240.709 203.066 239.653 205.075 240.076 206.758C240.281 207.572 240.775 208.121 240.872 208.217C241.131 208.495 241.499 208.881 242.018 208.869C242.404 208.857 242.694 208.634 242.82 208.519C249.022 202.396 255.223 196.274 261.424 190.157C261.641 189.946 261.647 189.596 261.436 189.373L255.44 183.22Z" fill="#9846D7"/>
<path d="M243.864 209.621L262.256 191.693C262.666 191.295 262.672 190.637 262.274 190.227L261.472 189.4L241.596 208.776L242.398 209.602C242.796 210.013 243.454 210.025 243.864 209.621Z" fill="#5D1113"/>
<path d="M168.129 100.344C168.364 100.507 168.672 100.706 169.046 100.911C169.703 101.279 170.288 101.532 170.711 101.689C171.278 101.906 172.014 102.135 172.894 102.298" stroke="#262626" stroke-width="0.581713" stroke-miterlimit="10" stroke-linecap="round" stroke-linejoin="round"/>
<path d="M167.434 105.631C167.434 105.631 167.729 105.788 168.531 105.619C169.334 105.45 170.172 104.979 170.172 104.979" stroke="#262626" stroke-width="0.581713" stroke-miterlimit="10" stroke-linecap="round" stroke-linejoin="round"/>
<path d="M169.172 107.554C169.172 107.554 169.48 107.482 170.246 107.132C171.006 106.782 171.711 106.306 171.711 106.306" stroke="#262626" stroke-width="0.581713" stroke-miterlimit="10" stroke-linecap="round" stroke-linejoin="round"/>
<path d="M171.35 108.989C171.35 108.989 171.995 108.723 172.363 108.506C172.731 108.289 173.147 107.915 173.147 107.915" stroke="#262626" stroke-width="0.581713" stroke-miterlimit="10" stroke-linecap="round" stroke-linejoin="round"/>
<path d="M210.161 131.393C210.161 131.393 202.596 160.257 202.138 167.725C201.679 175.193 199.646 195.721 199.646 195.721H205.082L212.706 156.607L210.161 131.393Z" fill="#AD66E6"/>
<path d="M216.006 165.438C214.92 163.496 213.502 160.491 212.706 156.601C212.543 155.81 212.477 155.31 212.024 150.659C211.421 144.434 210.957 139.336 210.933 139.047C210.758 137.128 210.492 134.215 210.161 130.602C210.161 130.602 209.702 123.453 209.467 119.768" stroke="#262626" stroke-width="0.581713" stroke-miterlimit="10" stroke-linecap="round" stroke-linejoin="round"/>
<path d="M225.65 110.851C225.65 110.851 227.448 145.548 228.28 149.698C229.113 153.849 231.224 162.975 234.801 167.681C238.378 172.386 246.48 184.227 246.48 184.227" stroke="#262626" stroke-width="0.581713" stroke-miterlimit="10" stroke-linecap="round" stroke-linejoin="round"/>
<path d="M210.016 131.929C210.016 131.929 203.109 160.196 202.62 163.96C202.132 167.718 199.646 195.714 199.646 195.714" stroke="#262626" stroke-width="0.581713" stroke-miterlimit="10" stroke-linecap="round" stroke-linejoin="round"/>
<path d="M250.724 180.084L242.303 188.3L243.298 189.169L252.051 181.441L250.724 180.084Z" fill="#FF7769"/>
<path d="M204.013 195.717H192.25L192.353 197.183H204.013V195.717Z" fill="#FF7769"/>
<path d="M207.074 61.4688C207.074 61.4688 202.507 78.2988 201.669 84.4758C200.83 90.6529 200.818 113.708 200.818 113.708H192.898C192.59 110.222 191.016 91.3044 194.52 77.5628C196.246 70.8127 198.665 67.3924 201.192 65.1122C203.382 63.1457 205.608 62.0599 207.074 61.4688Z" fill="#9846D7"/>
<path opacity="0.5" d="M192.559 108.988C193.789 109.151 195.412 109.241 197.282 109.006C198.669 108.831 199.858 108.523 200.823 108.204C200.847 106.72 200.871 105.236 200.901 103.752L192.287 107.1L192.559 108.988Z" fill="#FF9EEA"/>
<path d="M241.409 115.837C238.851 96.5038 236.004 81.8574 234.079 74.8479C233.325 72.0972 232.028 68.0375 228.439 65.1903C226.243 63.453 223.794 62.6446 222.871 62.3491C219.668 61.3236 216.869 61.3356 215.144 61.4683C215.144 61.4683 211.736 70.1005 211.675 73.4183C208.78 77.7494 204.419 83.1483 198.061 88.1672C191.075 93.6867 184.271 96.7089 179.523 98.3798L181.828 110.842C181.828 110.842 201.143 104.207 211.253 99.2967C211.127 107.362 211.018 114.166 211.018 114.166L241.409 115.837Z" fill="#9846D7"/>
<path opacity="0.5" d="M211.211 102.853L211.265 99.3062C218.389 95.6386 222.485 91.2712 224.603 88.611C227.522 84.9374 229.736 80.6786 230.665 78.881C231.92 76.462 232.837 74.3628 233.464 72.8125C234.061 75.0867 234.664 77.3608 235.262 79.635C233.85 82.9527 231.081 88.3154 225.845 93.4489C220.35 98.8418 214.625 101.538 211.211 102.853Z" fill="#FF9EEA"/>
<path d="M233.293 73.457C233.293 73.457 229.408 82.0711 225.88 87.1262C223.4 90.6792 219.105 95.3361 211.263 99.3053C206.999 101.23 202.517 103.136 197.829 104.994C192.322 107.177 186.983 109.12 181.838 110.851" stroke="#262626" stroke-width="0.581713" stroke-miterlimit="10" stroke-linecap="round" stroke-linejoin="round"/>
<path d="M221.816 62.041C220.965 62.0893 219.686 62.2944 218.443 63.0846C216.96 64.0317 216.338 65.3105 215.403 67.0478C214.601 68.5378 213.376 70.7215 211.681 73.4119C210.059 75.6197 203.266 84.6922 194.918 90.4952C191.467 92.8901 188.445 94.4524 188.445 94.4524C184.409 96.5335 179.529 98.3734 179.529 98.3734" stroke="#262626" stroke-width="0.581713" stroke-miterlimit="10" stroke-linecap="round" stroke-linejoin="round"/>
<path d="M196.932 70.8486C196.932 70.8486 195.75 73.0082 195.002 75.8614C194.254 78.7147 193.645 81.7007 193.645 81.7007" stroke="#262626" stroke-width="0.581713" stroke-miterlimit="10" stroke-linecap="round" stroke-linejoin="round"/>
<path d="M207.072 61.4653L186.912 50.7158" stroke="#262626" stroke-width="0.581713" stroke-miterlimit="10" stroke-linecap="round" stroke-linejoin="round"/>
<path d="M185.895 42.6084C184.489 42.7773 180.888 43.4167 178.24 46.3906C177.492 47.2291 176.249 48.6286 176.026 50.7158C175.61 54.6488 179.193 57.4538 179.531 57.7072" stroke="white" stroke-width="0.581713" stroke-miterlimit="10" stroke-linecap="round" stroke-linejoin="round"/>
<path d="M234.217 87.0186L237.118 109.151" stroke="#262626" stroke-width="0.581713" stroke-miterlimit="10" stroke-linecap="round" stroke-linejoin="round"/>
<path d="M108.394 161.319C107.893 158.46 107.712 156.155 107.845 154.412C107.978 152.669 108.545 151.064 109.552 149.61C110.125 148.736 110.819 147.988 111.633 147.354C112.442 146.727 113.177 146.057 113.829 145.351C114.48 144.652 114.999 143.861 115.379 142.987C115.759 142.112 115.826 140.978 115.584 139.567C115.168 137.19 114.227 135.531 112.749 134.584C111.277 133.637 109.643 133.166 107.845 133.166C105.275 133.166 103.628 133.884 102.911 135.314C102.193 136.743 101.921 138.674 102.102 141.093H92.722C92.3058 138.716 92.3179 136.562 92.7522 134.62C93.1865 132.684 94.0069 131.031 95.1953 129.674C96.3897 128.316 97.9279 127.273 99.81 126.549C101.692 125.819 103.852 125.457 106.277 125.457C111.513 125.457 115.832 126.525 119.234 128.654C122.636 130.79 124.759 134.252 125.598 139.054C125.869 140.604 125.948 141.961 125.839 143.126C125.725 144.29 125.435 145.345 124.971 146.286C124.506 147.234 123.885 148.114 123.107 148.941C122.328 149.767 121.436 150.612 120.422 151.486C119.499 152.313 118.769 153.073 118.239 153.779C117.708 154.484 117.34 155.22 117.135 155.998C116.93 156.777 116.857 157.585 116.905 158.435C116.954 159.286 117.074 160.245 117.261 161.307H108.394V161.319ZM110.559 175.356L108.895 165.831H118.709L120.374 175.356H110.559Z" fill="#E7E7E7"/>
<path d="M14.3564 212.143C13.8618 210.285 14.9657 208.385 16.8236 207.89L64.7681 195.138L66.5537 201.858L18.6092 214.61C16.7573 215.098 14.8511 213.995 14.3564 212.143Z" fill="#C490F0"/>
<path opacity="0.5" d="M110.911 194.926C113.984 182.144 106.112 169.291 93.3302 166.219C80.5481 163.147 67.6957 171.018 64.6234 183.8C61.5511 196.582 69.4225 209.435 82.2045 212.507C94.9866 215.579 107.839 207.708 110.911 194.926Z" fill="#CDEBF5"/>
<path d="M87.7701 162.771C73.0815 162.771 61.1738 174.678 61.1738 189.367C61.1738 204.055 73.0815 215.963 87.7701 215.963C102.459 215.963 114.366 204.055 114.366 189.367C114.36 174.678 102.459 162.771 87.7701 162.771ZM87.7701 211.644C75.4643 211.644 65.4929 201.673 65.4929 189.367C65.4929 177.061 75.4643 167.09 87.7701 167.09C100.076 167.09 110.047 177.061 110.047 189.367C110.047 201.667 100.07 211.644 87.7701 211.644Z" fill="#C490F0"/>
<path d="M92.4641 205.077C92.1806 204.823 91.9996 204.467 91.9694 204.063C91.9212 203.243 92.5425 202.543 93.3568 202.495C94.8408 202.404 96.3127 201.988 97.6036 201.294C99.0453 200.522 99.9863 199.563 100.421 199.062C100.933 198.465 102.001 197.229 102.393 195.389C102.936 192.831 101.808 190.617 101.295 189.785C100.867 189.085 101.084 188.174 101.784 187.746C102.484 187.318 103.395 187.535 103.823 188.234C104.685 189.646 106.025 192.523 105.295 195.998C104.746 198.58 103.292 200.275 102.671 200.999C101.977 201.801 100.777 202.959 99.0091 203.912C97.3442 204.805 95.45 205.342 93.5439 205.457C93.1337 205.481 92.7536 205.33 92.4641 205.077Z" fill="white"/>
<path d="M46.0929 198.764L13.6091 207.643C10.967 208.349 9.39255 211.057 10.0983 213.7C10.8041 216.342 13.5126 217.916 16.1547 217.21L49.0608 208.458L46.0929 198.764Z" fill="#FFCAF4"/>
<path d="M46.074 206.662L17.1191 214.221" stroke="#262626" stroke-width="0.581713" stroke-miterlimit="10" stroke-linecap="round" stroke-linejoin="round"/>
<path d="M97.7339 166.723C95.3934 165.673 89.1439 163.254 81.7242 165.118C78.6719 165.884 76.2771 167.163 74.582 168.285" stroke="#262626" stroke-width="0.581713" stroke-miterlimit="10" stroke-linecap="round" stroke-linejoin="round"/>
<path d="M235.939 34.0667C236.211 31.9012 236.597 30.1759 237.091 28.8971C237.586 27.6182 238.382 26.4842 239.474 25.5009C240.108 24.9098 240.801 24.4211 241.561 24.029C242.321 23.6369 243.027 23.2147 243.679 22.7562C244.33 22.2978 244.903 21.7609 245.392 21.1516C245.881 20.5424 246.188 19.7039 246.321 18.6362C246.544 16.8386 246.206 15.5175 245.307 14.673C244.403 13.8345 243.275 13.3278 241.917 13.1529C239.969 12.9055 238.563 13.2795 237.689 14.2749C236.82 15.2642 236.175 16.6697 235.758 18.4854L228.652 17.5926C228.876 15.795 229.376 14.1964 230.148 12.797C230.92 11.4035 231.916 10.2574 233.128 9.36459C234.341 8.47181 235.746 7.84446 237.339 7.48855C238.931 7.12662 240.644 7.06629 242.484 7.29552C246.454 7.7962 249.482 8.99662 251.575 10.9028C253.668 12.809 254.489 15.5778 254.03 19.2153C253.885 20.3916 253.632 21.405 253.282 22.2556C252.932 23.1061 252.474 23.8601 251.907 24.5177C251.34 25.1752 250.664 25.7724 249.892 26.3092C249.114 26.8461 248.245 27.389 247.28 27.938C246.393 28.4628 245.669 28.9574 245.108 29.4279C244.547 29.8984 244.095 30.4112 243.769 30.9662C243.437 31.5211 243.196 32.1183 243.039 32.7517C242.882 33.3851 242.756 34.109 242.653 34.9173L235.939 34.0667ZM234.383 44.6775L235.288 37.4569L242.726 38.3919L241.821 45.6125L234.383 44.6775Z" fill="#FFCAF4"/>
<path d="M209.386 19.9545C209.108 18.4162 209 17.1615 209.06 16.1783C209.126 15.201 209.422 14.254 209.959 13.3491C210.266 12.8123 210.634 12.3237 211.069 11.8954C211.503 11.4671 211.889 11.0267 212.239 10.5743C212.589 10.1219 212.86 9.63326 213.059 9.11448C213.258 8.59571 213.295 7.95629 213.156 7.20225C212.921 5.92944 212.408 5.09699 211.612 4.71696C210.815 4.33692 209.935 4.23437 208.975 4.40931C207.594 4.66266 206.713 5.21764 206.333 6.08025C205.953 6.94287 205.815 8.03471 205.923 9.36181L200.886 10.2787C200.651 9.0059 200.651 7.80548 200.88 6.68951C201.109 5.57354 201.538 4.57821 202.171 3.70957C202.804 2.84092 203.631 2.11101 204.638 1.52588C205.646 0.940752 206.804 0.524528 208.107 0.28927C210.918 -0.223474 213.24 -0.0545722 215.08 0.795978C216.914 1.64653 218.066 3.3597 218.537 5.93548C218.687 6.76793 218.736 7.51593 218.681 8.16742C218.627 8.82493 218.476 9.43419 218.229 10.0073C217.982 10.5743 217.65 11.1293 217.24 11.6601C216.823 12.1909 216.347 12.7519 215.81 13.331C215.315 13.88 214.929 14.3746 214.646 14.815C214.362 15.2553 214.169 15.7017 214.061 16.1541C213.952 16.6066 213.916 17.059 213.946 17.5235C213.976 17.988 214.043 18.5067 214.151 19.0798L209.386 19.9545ZM210.598 27.5189L209.663 22.4036L214.935 21.4445L215.87 26.5598L210.598 27.5189Z" fill="#FFCAF4"/>
</svg>
