<svg width="25" height="25" viewBox="0 0 25 25" fill="none" xmlns="http://www.w3.org/2000/svg">
<path d="M8.5 2.5V5.5" stroke="#5D5D5D" stroke-width="1.5" stroke-miterlimit="10" stroke-linecap="round" stroke-linejoin="round"/>
<path d="M16.5 2.5V5.5" stroke="#5D5D5D" stroke-width="1.5" stroke-miterlimit="10" stroke-linecap="round" stroke-linejoin="round"/>
<path d="M4 9.58984H21" stroke="#5D5D5D" stroke-width="1.5" stroke-miterlimit="10" stroke-linecap="round" stroke-linejoin="round"/>
<path d="M22.5 19.5C22.5 20.25 22.29 20.96 21.92 21.56C21.23 22.72 19.96 23.5 18.5 23.5C17.49 23.5 16.57 23.13 15.87 22.5C15.56 22.24 15.29 21.92 15.08 21.56C14.71 20.96 14.5 20.25 14.5 19.5C14.5 17.29 16.29 15.5 18.5 15.5C19.7 15.5 20.77 16.03 21.5 16.86C22.12 17.57 22.5 18.49 22.5 19.5Z" stroke="#5D5D5D" stroke-width="1.5" stroke-miterlimit="10" stroke-linecap="round" stroke-linejoin="round"/>
<path d="M16.9395 19.4995L17.9295 20.4895L20.0594 18.5195" stroke="#5D5D5D" stroke-width="1.5" stroke-linecap="round" stroke-linejoin="round"/>
<path d="M21.5 9V16.86C20.77 16.03 19.7 15.5 18.5 15.5C16.29 15.5 14.5 17.29 14.5 19.5C14.5 20.25 14.71 20.96 15.08 21.56C15.29 21.92 15.56 22.24 15.87 22.5H8.5C5 22.5 3.5 20.5 3.5 17.5V9C3.5 6 5 4 8.5 4H16.5C20 4 21.5 6 21.5 9Z" stroke="#5D5D5D" stroke-width="1.5" stroke-miterlimit="10" stroke-linecap="round" stroke-linejoin="round"/>
<path d="M12.4945 14.1992H12.5035" stroke="#5D5D5D" stroke-width="1.5" stroke-linecap="round" stroke-linejoin="round"/>
<path d="M8.79529 14.1992H8.80427" stroke="#5D5D5D" stroke-width="1.5" stroke-linecap="round" stroke-linejoin="round"/>
<path d="M8.79529 17.1992H8.80427" stroke="#5D5D5D" stroke-width="1.5" stroke-linecap="round" stroke-linejoin="round"/>
</svg>
