<svg width="25" height="25" viewBox="0 0 25 25" fill="none" xmlns="http://www.w3.org/2000/svg">
<path d="M17.2502 4.06V2.5C17.2502 2.09 16.9102 1.75 16.5002 1.75C16.0902 1.75 15.7502 2.09 15.7502 2.5V4H9.25023V2.5C9.25023 2.09 8.91023 1.75 8.50023 1.75C8.09023 1.75 7.75023 2.09 7.75023 2.5V4.06C5.05023 4.31 3.74023 5.92 3.54023 8.31C3.52023 8.6 3.76023 8.84 4.04023 8.84H20.9602C21.2502 8.84 21.4902 8.59 21.4602 8.31C21.2602 5.92 19.9502 4.31 17.2502 4.06Z" fill="#9846D7"/>
<path d="M19.5 15.5C17.29 15.5 15.5 17.29 15.5 19.5C15.5 20.25 15.71 20.96 16.08 21.56C16.77 22.72 18.04 23.5 19.5 23.5C20.96 23.5 22.23 22.72 22.92 21.56C23.29 20.96 23.5 20.25 23.5 19.5C23.5 17.29 21.71 15.5 19.5 15.5ZM21.57 19.07L19.44 21.04C19.3 21.17 19.11 21.24 18.93 21.24C18.74 21.24 18.55 21.17 18.4 21.02L17.41 20.03C17.12 19.74 17.12 19.26 17.41 18.97C17.7 18.68 18.18 18.68 18.47 18.97L18.95 19.45L20.55 17.97C20.85 17.69 21.33 17.71 21.61 18.01C21.89 18.31 21.87 18.78 21.57 19.07Z" fill="#9846D7"/>
<path d="M20.5 10.3398H4.5C3.95 10.3398 3.5 10.7898 3.5 11.3398V17.4998C3.5 20.4998 5 22.4998 8.5 22.4998H13.43C14.12 22.4998 14.6 21.8298 14.38 21.1798C14.18 20.5998 14.01 19.9598 14.01 19.4998C14.01 16.4698 16.48 13.9998 19.51 13.9998C19.8 13.9998 20.09 14.0198 20.37 14.0698C20.97 14.1598 21.51 13.6898 21.51 13.0898V11.3498C21.5 10.7898 21.05 10.3398 20.5 10.3398ZM9.71 18.7098C9.52 18.8898 9.26 18.9998 9 18.9998C8.74 18.9998 8.48 18.8898 8.29 18.7098C8.11 18.5198 8 18.2598 8 17.9998C8 17.7398 8.11 17.4798 8.29 17.2898C8.39 17.1998 8.49 17.1298 8.62 17.0798C8.99 16.9198 9.43 17.0098 9.71 17.2898C9.89 17.4798 10 17.7398 10 17.9998C10 18.2598 9.89 18.5198 9.71 18.7098ZM9.71 15.2098C9.66 15.2498 9.61 15.2898 9.56 15.3298C9.5 15.3698 9.44 15.3998 9.38 15.4198C9.32 15.4498 9.26 15.4698 9.2 15.4798C9.13 15.4898 9.06 15.4998 9 15.4998C8.74 15.4998 8.48 15.3898 8.29 15.2098C8.11 15.0198 8 14.7598 8 14.4998C8 14.2398 8.11 13.9798 8.29 13.7898C8.52 13.5598 8.87 13.4498 9.2 13.5198C9.26 13.5298 9.32 13.5498 9.38 13.5798C9.44 13.5998 9.5 13.6298 9.56 13.6698C9.61 13.7098 9.66 13.7498 9.71 13.7898C9.89 13.9798 10 14.2398 10 14.4998C10 14.7598 9.89 15.0198 9.71 15.2098ZM13.21 15.2098C13.02 15.3898 12.76 15.4998 12.5 15.4998C12.24 15.4998 11.98 15.3898 11.79 15.2098C11.61 15.0198 11.5 14.7598 11.5 14.4998C11.5 14.2398 11.61 13.9798 11.79 13.7898C12.17 13.4198 12.84 13.4198 13.21 13.7898C13.39 13.9798 13.5 14.2398 13.5 14.4998C13.5 14.7598 13.39 15.0198 13.21 15.2098Z" fill="#9846D7"/>
</svg>
