<svg width="16" height="16" viewBox="0 0 16 16" fill="none" xmlns="http://www.w3.org/2000/svg">
<path d="M12 1.33301V2.66634M4 1.33301V2.66634" stroke="white" stroke-width="1.5" stroke-linecap="round" stroke-linejoin="round"/>
<path d="M7.99765 8.66699H8.00365M7.99765 11.3337H8.00365M10.6613 8.66699H10.6673M5.33398 8.66699H5.33996M5.33398 11.3337H5.33996" stroke="white" stroke-width="1.5" stroke-linecap="round" stroke-linejoin="round"/>
<path d="M2.33398 5.33301H13.6673" stroke="white" stroke-linecap="round" stroke-linejoin="round"/>
<path d="M1.66602 8.16213C1.66602 5.25729 1.66602 3.80485 2.50076 2.90243C3.33551 2 4.67901 2 7.36602 2H8.63268C11.3197 2 12.6632 2 13.4979 2.90243C14.3327 3.80485 14.3327 5.25729 14.3327 8.16213V8.50453C14.3327 11.4094 14.3327 12.8618 13.4979 13.7643C12.6632 14.6667 11.3197 14.6667 8.63268 14.6667H7.36602C4.67901 14.6667 3.33551 14.6667 2.50076 13.7643C1.66602 12.8618 1.66602 11.4094 1.66602 8.50453V8.16213Z" stroke="white" stroke-linecap="round" stroke-linejoin="round"/>
</svg>
