<svg width="80" height="80" viewBox="0 0 80 80" fill="none" xmlns="http://www.w3.org/2000/svg">
<circle cx="40" cy="40" r="40" fill="#F4533A" fill-opacity="0.1"/>
<path d="M49.6743 29.1407H50.1786C51.8058 29.1407 53.4235 29.1407 55.0507 29.1407C56.1047 29.1959 57.0985 29.649 57.8314 30.4085C58.5644 31.1679 58.9819 32.1772 58.9997 33.2325C58.9997 33.28 58.9997 33.3276 58.9997 33.3847C58.9997 39.183 58.9997 44.9813 58.9997 50.7796C59.011 51.7743 58.6661 52.7402 58.0274 53.5029C57.3886 54.2655 56.4982 54.7745 55.517 54.938C55.2024 54.9886 54.8839 55.0109 54.5654 55.0046H25.428C24.4423 55.0587 23.4691 54.7628 22.6803 54.1691C21.8916 53.5753 21.338 52.722 21.1174 51.7597C21.0386 51.41 21.0002 51.0524 21.0032 50.6939C21.0032 44.9845 21.0032 39.2496 21.0032 33.4894C20.9808 32.9164 21.0764 32.3448 21.284 31.8102C21.4916 31.2757 21.8068 30.7894 22.2101 30.3817C22.6134 29.974 23.0961 29.6534 23.6284 29.4399C24.1606 29.2265 24.7311 29.1246 25.3043 29.1407C26.8364 29.1407 28.3779 29.1407 29.91 29.1407H30.3667C30.3667 28.6839 30.3667 28.2557 30.3667 27.8275C30.3312 27.1086 30.5128 26.3957 30.8879 25.7814C31.2629 25.167 31.8141 24.6797 32.4697 24.3828C32.9949 24.1394 33.5657 24.0097 34.1445 24.0022C38.0555 24.0022 41.976 24.0022 45.887 24.0022C46.3915 23.9849 46.8941 24.0716 47.3638 24.2567C47.8334 24.4419 48.2599 24.7217 48.6168 25.0786C48.9738 25.4356 49.2535 25.8621 49.4387 26.3317C49.6239 26.8013 49.7105 27.304 49.6933 27.8085C49.6743 28.2747 49.6743 28.6934 49.6743 29.1407ZM40.0253 51.3791C41.864 51.3791 43.6615 50.8338 45.1903 49.8123C46.7192 48.7907 47.9108 47.3387 48.6145 45.6399C49.3182 43.9411 49.5023 42.0718 49.1435 40.2684C48.7848 38.465 47.8994 36.8084 46.5992 35.5082C45.299 34.208 43.6424 33.3226 41.839 32.9639C40.0356 32.6051 38.1663 32.7892 36.4675 33.4929C34.7687 34.1966 33.3167 35.3882 32.2951 36.9171C31.2736 38.4459 30.7283 40.2434 30.7283 42.0822C30.7359 44.5455 31.7178 46.9059 33.4597 48.6478C35.2015 50.3896 37.5619 51.3715 40.0253 51.3791Z" fill="#F4533A"/>
<path d="M46.1535 42.1012C46.1497 43.3159 45.7856 44.5022 45.1072 45.5098C44.4288 46.5174 43.4666 47.3011 42.3426 47.7616C41.2185 48.2221 39.9831 48.3387 38.7927 48.0966C37.6024 47.8545 36.5106 47.2647 35.6557 46.4018C34.8008 45.5388 34.2211 44.4416 33.9901 43.249C33.7592 42.0565 33.8873 40.8222 34.3582 39.7025C34.8292 38.5828 35.6218 37.628 36.6357 36.959C37.6496 36.29 38.8392 35.9369 40.0539 35.9445C41.6776 35.957 43.2304 36.6115 44.3733 37.765C45.5161 38.9186 46.1561 40.4774 46.1535 42.1012Z" fill="#F4533A"/>
</svg>
