<svg width="101" height="100" viewBox="0 0 101 100" fill="none" xmlns="http://www.w3.org/2000/svg">
<rect x="1" y="0.5" width="99" height="99" rx="7.5" fill="white"/>
<rect x="1" y="0.5" width="99" height="99" rx="7.5" stroke="#D1D1D1"/>
<circle cx="50.499" cy="39.7412" r="25.7412" fill="#8E36A4" fill-opacity="0.07"/>
<path d="M60.5004 50.0286H39.5909C39.0364 50.0286 38.5046 49.8277 38.1124 49.47C37.7203 49.1122 37.5 48.6271 37.5 48.1212V34.7687C37.5 34.2628 37.7203 33.7777 38.1124 33.4199C38.5046 33.0622 39.0364 32.8612 39.5909 32.8612H43.7728L45.8638 30H54.2275L56.3185 32.8612H60.5004C61.0549 32.8612 61.5868 33.0622 61.9789 33.4199C62.371 33.7777 62.5913 34.2628 62.5913 34.7687V48.1212C62.5913 48.6271 62.371 49.1122 61.9789 49.47C61.5868 49.8277 61.0549 50.0286 60.5004 50.0286Z" stroke="url(#paint0_linear_1484_557)" stroke-width="2" stroke-linecap="round" stroke-linejoin="round"/>
<path d="M50.0464 45.2595C52.6447 45.2595 54.751 43.338 54.751 40.9676C54.751 38.5973 52.6447 36.6758 50.0464 36.6758C47.4481 36.6758 45.3418 38.5973 45.3418 40.9676C45.3418 43.338 47.4481 45.2595 50.0464 45.2595Z" stroke="url(#paint1_linear_1484_557)" stroke-width="2" stroke-linecap="round" stroke-linejoin="round"/>
<path d="M26.6278 84.4824V78.2674H24.2328V77.2824H30.0678V78.2674H27.6728V84.4824H26.6278ZM31.6898 84.6324C31.2898 84.6324 30.9548 84.5591 30.6848 84.4124C30.4148 84.2624 30.2098 84.0658 30.0698 83.8224C29.9332 83.5758 29.8648 83.3058 29.8648 83.0124C29.8648 82.7391 29.9132 82.4991 30.0098 82.2924C30.1065 82.0858 30.2498 81.9108 30.4398 81.7674C30.6298 81.6208 30.8632 81.5024 31.1398 81.4124C31.3798 81.3424 31.6515 81.2808 31.9548 81.2274C32.2582 81.1741 32.5765 81.1241 32.9098 81.0774C33.2465 81.0308 33.5798 80.9841 33.9098 80.9374L33.5298 81.1474C33.5365 80.7241 33.4465 80.4108 33.2598 80.2074C33.0765 80.0008 32.7598 79.8974 32.3098 79.8974C32.0265 79.8974 31.7665 79.9641 31.5298 80.0974C31.2932 80.2274 31.1282 80.4441 31.0348 80.7474L30.0598 80.4474C30.1932 79.9841 30.4465 79.6158 30.8198 79.3424C31.1965 79.0691 31.6965 78.9324 32.3198 78.9324C32.8032 78.9324 33.2232 79.0158 33.5798 79.1824C33.9398 79.3458 34.2032 79.6058 34.3698 79.9624C34.4565 80.1391 34.5098 80.3258 34.5298 80.5224C34.5498 80.7191 34.5598 80.9308 34.5598 81.1574V84.4824H33.6348V83.2474L33.8148 83.4074C33.5915 83.8208 33.3065 84.1291 32.9598 84.3324C32.6165 84.5324 32.1932 84.6324 31.6898 84.6324ZM31.8748 83.7774C32.1715 83.7774 32.4265 83.7258 32.6398 83.6224C32.8532 83.5158 33.0248 83.3808 33.1548 83.2174C33.2848 83.0541 33.3698 82.8841 33.4098 82.7074C33.4665 82.5474 33.4982 82.3674 33.5048 82.1674C33.5148 81.9674 33.5198 81.8074 33.5198 81.6874L33.8598 81.8124C33.5298 81.8624 33.2298 81.9074 32.9598 81.9474C32.6898 81.9874 32.4448 82.0274 32.2248 82.0674C32.0082 82.1041 31.8148 82.1491 31.6448 82.2024C31.5015 82.2524 31.3732 82.3124 31.2598 82.3824C31.1498 82.4524 31.0615 82.5374 30.9948 82.6374C30.9315 82.7374 30.8998 82.8591 30.8998 83.0024C30.8998 83.1424 30.9348 83.2724 31.0048 83.3924C31.0748 83.5091 31.1815 83.6024 31.3248 83.6724C31.4682 83.7424 31.6515 83.7774 31.8748 83.7774ZM35.8532 84.4824L35.8582 77.2824H36.9182V81.6824L39.0382 79.0824H40.3682L38.1282 81.7824L40.5982 84.4824H39.1782L36.9182 81.8824V84.4824H35.8532ZM43.3997 84.6324C42.863 84.6324 42.3914 84.5158 41.9847 84.2824C41.5814 84.0458 41.2664 83.7174 41.0397 83.2974C40.8164 82.8741 40.7047 82.3841 40.7047 81.8274C40.7047 81.2374 40.8147 80.7258 41.0347 80.2924C41.258 79.8591 41.568 79.5241 41.9647 79.2874C42.3614 79.0508 42.823 78.9324 43.3497 78.9324C43.8997 78.9324 44.368 79.0608 44.7547 79.3174C45.1414 79.5708 45.4297 79.9324 45.6197 80.4024C45.813 80.8724 45.8897 81.4308 45.8497 82.0774H44.8047V81.6974C44.798 81.0708 44.678 80.6074 44.4447 80.3074C44.2147 80.0074 43.863 79.8574 43.3897 79.8574C42.8664 79.8574 42.473 80.0224 42.2097 80.3524C41.9464 80.6824 41.8147 81.1591 41.8147 81.7824C41.8147 82.3758 41.9464 82.8358 42.2097 83.1624C42.473 83.4858 42.853 83.6474 43.3497 83.6474C43.6764 83.6474 43.958 83.5741 44.1947 83.4274C44.4347 83.2774 44.6214 83.0641 44.7547 82.7874L45.7797 83.1124C45.5697 83.5958 45.2514 83.9708 44.8247 84.2374C44.398 84.5008 43.923 84.6324 43.3997 84.6324ZM41.4747 82.0774V81.2624H45.3297V82.0774H41.4747ZM48.9734 84.4824V77.2824H51.8834C51.9534 77.2824 52.0401 77.2858 52.1434 77.2924C52.2468 77.2958 52.3451 77.3058 52.4384 77.3224C52.8384 77.3858 53.1718 77.5224 53.4384 77.7324C53.7084 77.9424 53.9101 78.2074 54.0434 78.5274C54.1768 78.8474 54.2434 79.2008 54.2434 79.5874C54.2434 79.9774 54.1768 80.3324 54.0434 80.6524C53.9101 80.9724 53.7084 81.2374 53.4384 81.4474C53.1718 81.6574 52.8384 81.7941 52.4384 81.8574C52.3451 81.8708 52.2451 81.8808 52.1384 81.8874C52.0351 81.8941 51.9501 81.8974 51.8834 81.8974H50.0184V84.4824H48.9734ZM50.0184 80.9074H51.8434C51.9101 80.9074 51.9834 80.9041 52.0634 80.8974C52.1468 80.8908 52.2251 80.8791 52.2984 80.8624C52.5118 80.8124 52.6834 80.7208 52.8134 80.5874C52.9434 80.4508 53.0368 80.2941 53.0934 80.1174C53.1501 79.9408 53.1784 79.7641 53.1784 79.5874C53.1784 79.4108 53.1501 79.2358 53.0934 79.0624C53.0368 78.8858 52.9434 78.7308 52.8134 78.5974C52.6834 78.4608 52.5118 78.3674 52.2984 78.3174C52.2251 78.2974 52.1468 78.2841 52.0634 78.2774C51.9834 78.2708 51.9101 78.2674 51.8434 78.2674H50.0184V80.9074ZM59.033 84.4824V81.8274C59.033 81.6174 59.0146 81.4024 58.978 81.1824C58.9446 80.9591 58.878 80.7524 58.778 80.5624C58.6813 80.3724 58.543 80.2191 58.363 80.1024C58.1863 79.9858 57.9546 79.9274 57.668 79.9274C57.4813 79.9274 57.3046 79.9591 57.138 80.0224C56.9713 80.0824 56.8246 80.1808 56.698 80.3174C56.5746 80.4541 56.4763 80.6341 56.403 80.8574C56.333 81.0808 56.298 81.3524 56.298 81.6724L55.648 81.4274C55.648 80.9374 55.7396 80.5058 55.923 80.1324C56.1063 79.7558 56.3696 79.4624 56.713 79.2524C57.0563 79.0424 57.4713 78.9374 57.958 78.9374C58.3313 78.9374 58.6446 78.9974 58.898 79.1174C59.1513 79.2374 59.3563 79.3958 59.513 79.5924C59.673 79.7858 59.7946 79.9974 59.878 80.2274C59.9613 80.4574 60.018 80.6824 60.048 80.9024C60.078 81.1224 60.093 81.3158 60.093 81.4824V84.4824H59.033ZM55.238 84.4824V77.2824H56.173V81.1674H56.298V84.4824H55.238ZM63.7403 84.6324C63.2003 84.6324 62.732 84.5108 62.3353 84.2674C61.9386 84.0241 61.632 83.6891 61.4153 83.2624C61.202 82.8324 61.0953 82.3374 61.0953 81.7774C61.0953 81.2141 61.2053 80.7191 61.4253 80.2924C61.6453 79.8624 61.9536 79.5291 62.3503 79.2924C62.747 79.0524 63.2103 78.9324 63.7403 78.9324C64.2803 78.9324 64.7486 79.0541 65.1453 79.2974C65.542 79.5408 65.8486 79.8758 66.0653 80.3024C66.282 80.7291 66.3903 81.2208 66.3903 81.7774C66.3903 82.3408 66.2803 82.8374 66.0603 83.2674C65.8436 83.6941 65.537 84.0291 65.1403 84.2724C64.7436 84.5124 64.277 84.6324 63.7403 84.6324ZM63.7403 83.6474C64.257 83.6474 64.642 83.4741 64.8953 83.1274C65.152 82.7774 65.2803 82.3274 65.2803 81.7774C65.2803 81.2141 65.1503 80.7641 64.8903 80.4274C64.6336 80.0874 64.2503 79.9174 63.7403 79.9174C63.3903 79.9174 63.102 79.9974 62.8753 80.1574C62.6486 80.3141 62.4803 80.5324 62.3703 80.8124C62.2603 81.0891 62.2053 81.4108 62.2053 81.7774C62.2053 82.3441 62.3353 82.7974 62.5953 83.1374C62.8553 83.4774 63.237 83.6474 63.7403 83.6474ZM70.5791 84.4824C70.2391 84.5491 69.9057 84.5774 69.5791 84.5674C69.2524 84.5574 68.9607 84.4941 68.7041 84.3774C68.4474 84.2608 68.2541 84.0774 68.1241 83.8274C68.0074 83.6041 67.9441 83.3774 67.9341 83.1474C67.9274 82.9141 67.9241 82.6508 67.9241 82.3574V77.5824H68.9741V82.3074C68.9741 82.5241 68.9757 82.7124 68.9791 82.8724C68.9857 83.0324 69.0207 83.1674 69.0841 83.2774C69.2041 83.4841 69.3941 83.6024 69.6541 83.6324C69.9174 83.6591 70.2257 83.6474 70.5791 83.5974V84.4824ZM66.8891 79.9224V79.0824H70.5791V79.9224H66.8891ZM73.8184 84.6324C73.2784 84.6324 72.8101 84.5108 72.4134 84.2674C72.0168 84.0241 71.7101 83.6891 71.4934 83.2624C71.2801 82.8324 71.1734 82.3374 71.1734 81.7774C71.1734 81.2141 71.2834 80.7191 71.5034 80.2924C71.7234 79.8624 72.0318 79.5291 72.4284 79.2924C72.8251 79.0524 73.2884 78.9324 73.8184 78.9324C74.3584 78.9324 74.8268 79.0541 75.2234 79.2974C75.6201 79.5408 75.9268 79.8758 76.1434 80.3024C76.3601 80.7291 76.4684 81.2208 76.4684 81.7774C76.4684 82.3408 76.3584 82.8374 76.1384 83.2674C75.9218 83.6941 75.6151 84.0291 75.2184 84.2724C74.8218 84.5124 74.3551 84.6324 73.8184 84.6324ZM73.8184 83.6474C74.3351 83.6474 74.7201 83.4741 74.9734 83.1274C75.2301 82.7774 75.3584 82.3274 75.3584 81.7774C75.3584 81.2141 75.2284 80.7641 74.9684 80.4274C74.7118 80.0874 74.3284 79.9174 73.8184 79.9174C73.4684 79.9174 73.1801 79.9974 72.9534 80.1574C72.7268 80.3141 72.5584 80.5324 72.4484 80.8124C72.3384 81.0891 72.2834 81.4108 72.2834 81.7774C72.2834 82.3441 72.4134 82.7974 72.6734 83.1374C72.9334 83.4774 73.3151 83.6474 73.8184 83.6474Z" fill="#8E36A4"/>
<defs>
<linearGradient id="paint0_linear_1484_557" x1="50.0457" y1="30" x2="50.0457" y2="50.0286" gradientUnits="userSpaceOnUse">
<stop stop-color="#9846D7"/>
<stop offset="1" stop-color="#C490F0"/>
</linearGradient>
<linearGradient id="paint1_linear_1484_557" x1="50.0464" y1="36.6758" x2="50.0464" y2="45.2595" gradientUnits="userSpaceOnUse">
<stop stop-color="#9846D7"/>
<stop offset="1" stop-color="#C490F0"/>
</linearGradient>
</defs>
</svg>
