<svg width="22" height="22" viewBox="0 0 22 22" fill="none" xmlns="http://www.w3.org/2000/svg">
<path d="M14.8415 1.83301H7.15982C3.82315 1.83301 1.83398 3.82217 1.83398 7.15884V14.8313C1.83398 18.1772 3.82315 20.1663 7.15982 20.1663H14.8323C18.169 20.1663 20.1582 18.1772 20.1582 14.8405V7.15884C20.1673 3.82217 18.1782 1.83301 14.8415 1.83301ZM15.3823 8.89134L10.1848 14.0888C10.0565 14.2172 9.88232 14.2905 9.69898 14.2905C9.51565 14.2905 9.34148 14.2172 9.21315 14.0888L6.61898 11.4947C6.35315 11.2288 6.35315 10.7888 6.61898 10.523C6.88482 10.2572 7.32482 10.2572 7.59065 10.523L9.69898 12.6313L14.4107 7.91967C14.6765 7.65384 15.1165 7.65384 15.3823 7.91967C15.6482 8.18551 15.6482 8.61634 15.3823 8.89134Z" fill="#9846D7"/>
</svg>
