<svg width="30" height="30" viewBox="0 0 30 30" fill="none" xmlns="http://www.w3.org/2000/svg">
<g filter="url(#filter0_b_123_5740)">
<rect width="30" height="30" rx="6" fill="#F4EAFD"/>
<path d="M20.625 10.125L20.1602 17.6438C20.0414 19.5648 19.9821 20.5253 19.5006 21.2159C19.2625 21.5573 18.956 21.8455 18.6005 22.062C17.8816 22.5 16.9192 22.5 14.9945 22.5C13.0673 22.5 12.1037 22.5 11.3843 22.0612C11.0286 21.8443 10.722 21.5556 10.484 21.2136C10.0027 20.5219 9.94459 19.5601 9.82846 17.6364L9.375 10.125" stroke="#9846D7" stroke-width="1.125" stroke-linecap="round"/>
<path d="M12.75 14.8008H17.25" stroke="#9846D7" stroke-width="1.125" stroke-linecap="round"/>
<path d="M13.875 17.7402H16.125" stroke="#9846D7" stroke-width="1.125" stroke-linecap="round"/>
<path d="M8.25 10.125H21.75M18.0416 10.125L17.5297 9.0688C17.1896 8.3672 17.0195 8.01639 16.7261 7.79761C16.6611 7.74908 16.5922 7.7059 16.5201 7.66852C16.1953 7.5 15.8054 7.5 15.0257 7.5C14.2264 7.5 13.8269 7.5 13.4966 7.67559C13.4234 7.71451 13.3536 7.75943 13.2878 7.80988C12.9911 8.03753 12.8253 8.40116 12.4938 9.12844L12.0395 10.125" stroke="#9846D7" stroke-width="1.125" stroke-linecap="round"/>
</g>
<defs>
<filter id="filter0_b_123_5740" x="-3.33333" y="-3.33333" width="36.6667" height="36.6667" filterUnits="userSpaceOnUse" color-interpolation-filters="sRGB">
<feFlood flood-opacity="0" result="BackgroundImageFix"/>
<feGaussianBlur in="BackgroundImageFix" stdDeviation="1.66667"/>
<feComposite in2="SourceAlpha" operator="in" result="effect1_backgroundBlur_123_5740"/>
<feBlend mode="normal" in="SourceGraphic" in2="effect1_backgroundBlur_123_5740" result="shape"/>
</filter>
</defs>
</svg>
