<svg width="30" height="30" viewBox="0 0 30 30" fill="none" xmlns="http://www.w3.org/2000/svg">
<g filter="url(#filter0_b_123_5722)">
<rect width="30" height="30" rx="6" fill="#F4EAFD"/>
<path d="M18.1606 9.73679L19.2119 8.68547C19.7925 8.10484 20.7339 8.10484 21.3145 8.68547C21.8951 9.2661 21.8951 10.2075 21.3145 10.7881L20.2632 11.8394M18.1606 9.73679L14.2351 13.6622C13.4512 14.4462 13.0592 14.8381 12.7923 15.3158C12.5254 15.7935 12.2568 16.9214 12 18C13.0786 17.7432 14.2065 17.4746 14.6842 17.2077C15.1619 16.9408 15.5538 16.5488 16.3378 15.7648L20.2632 11.8394M18.1606 9.73679L20.2632 11.8394" stroke="#9846D7" stroke-width="1.125" stroke-linecap="round" stroke-linejoin="round"/>
<path d="M21.75 15C21.75 18.1819 21.75 19.773 20.7615 20.7615C19.773 21.75 18.1819 21.75 15 21.75C11.818 21.75 10.227 21.75 9.23851 20.7615C8.25 19.773 8.25 18.1819 8.25 15C8.25 11.818 8.25 10.227 9.23851 9.23851C10.227 8.25 11.818 8.25 15 8.25" stroke="#9846D7" stroke-width="1.125" stroke-linecap="round"/>
</g>
<defs>
<filter id="filter0_b_123_5722" x="-3.33333" y="-3.33333" width="36.6667" height="36.6667" filterUnits="userSpaceOnUse" color-interpolation-filters="sRGB">
<feFlood flood-opacity="0" result="BackgroundImageFix"/>
<feGaussianBlur in="BackgroundImageFix" stdDeviation="1.66667"/>
<feComposite in2="SourceAlpha" operator="in" result="effect1_backgroundBlur_123_5722"/>
<feBlend mode="normal" in="SourceGraphic" in2="effect1_backgroundBlur_123_5722" result="shape"/>
</filter>
</defs>
</svg>
