<svg width="60" height="60" viewBox="0 0 60 60" fill="none" xmlns="http://www.w3.org/2000/svg">
<rect width="60" height="60" rx="30" fill="#9846D7"/>
<path d="M28.8047 23.1055L29.5781 22.332C29.9297 22.0156 30.457 22.0156 30.7734 22.332L37.6289 29.1523C37.9453 29.5039 37.9453 30.0312 37.6289 30.3477L30.7734 37.2031C30.457 37.5195 29.9297 37.5195 29.5781 37.2031L28.8047 36.4297C28.4883 36.0781 28.4883 35.5508 28.8047 35.1992L33.0586 31.1562H22.9688C22.4766 31.1562 22.125 30.8047 22.125 30.3125V29.1875C22.125 28.7305 22.4766 28.3438 22.9688 28.3438H33.0586L28.8047 24.3359C28.4883 23.9844 28.4531 23.457 28.8047 23.1055Z" fill="white"/>
</svg>
