<svg width="77" height="78" viewBox="0 0 77 78" fill="none" xmlns="http://www.w3.org/2000/svg">
<rect x="3.5" y="4" width="70" height="70" rx="35" fill="#D1FADF"/>
<rect x="3.5" y="4" width="70" height="70" rx="35" stroke="#ECFDF3" stroke-width="7"/>
<path d="M52.5827 37.1582V38.4999C52.5809 41.6447 51.5626 44.7046 49.6796 47.2234C47.7967 49.7421 45.15 51.5847 42.1342 52.4764C39.1185 53.3681 35.8954 53.261 32.9455 52.1712C29.9956 51.0813 27.477 49.0671 25.7653 46.4289C24.0537 43.7908 23.2407 40.67 23.4476 37.532C23.6545 34.394 24.8703 31.407 26.9135 29.0164C28.9567 26.6259 31.718 24.9598 34.7855 24.2668C37.8529 23.5737 41.0622 23.8908 43.9348 25.1707M52.5827 26.8332L37.9994 41.4311L33.6244 37.0561" stroke="#27AE60" stroke-width="2.91667" stroke-linecap="round" stroke-linejoin="round"/>
</svg>
