<svg width="81" height="80" viewBox="0 0 81 80" fill="none" xmlns="http://www.w3.org/2000/svg">
<circle cx="40.3765" cy="40" r="40" fill="#F4533A" fill-opacity="0.1"/>
<g clip-path="url(#clip0_844_106)">
<path d="M43.7064 23.6599H56.0564C57.016 23.6185 57.9599 23.9136 58.725 24.4942C59.49 25.0749 60.0282 25.9046 60.2464 26.8399C60.3339 27.2068 60.3775 27.5827 60.3764 27.9599C60.3764 33.9599 60.3764 39.9799 60.3764 46.0199C60.3975 46.5916 60.3003 47.1614 60.0912 47.6938C59.882 48.2262 59.5653 48.7098 59.1608 49.1143C58.7563 49.5188 58.2728 49.8355 57.7403 50.0446C57.2079 50.2538 56.6381 50.3509 56.0664 50.3299H31.3264C30.7647 50.3503 30.2047 50.2563 29.6804 50.0537C29.1561 49.8512 28.6784 49.5442 28.2763 49.1514C27.8742 48.7587 27.5561 48.2884 27.3413 47.769C27.1264 47.2496 27.0193 46.6919 27.0264 46.1299C27.0264 40.0699 27.0264 34.0132 27.0264 27.9599C27.011 27.3942 27.1118 26.8313 27.3224 26.3061C27.5331 25.7808 27.8492 25.3043 28.2512 24.906C28.6533 24.5077 29.1327 24.1961 29.6599 23.9904C30.1871 23.7846 30.7509 23.6892 31.3164 23.7099L43.7064 23.6599ZM56.9464 39.5499H57.0264V39.2399C57.0264 35.5266 57.0264 31.8132 57.0264 28.0999C57.0264 27.2999 56.7464 27.0199 55.9364 27.0199H31.4464C30.6464 27.0199 30.3564 27.3099 30.3564 28.0999C30.3698 33.0999 30.3764 38.1099 30.3764 43.1299C30.3764 43.2399 30.3764 43.3499 30.3764 43.5199L30.6964 43.2199L34.8164 39.1299C35.0915 38.8139 35.4311 38.5606 35.8123 38.3871C36.1935 38.2135 36.6075 38.1237 37.0264 38.1237C37.4453 38.1237 37.8594 38.2135 38.2406 38.3871C38.6218 38.5606 38.9614 38.8139 39.2364 39.1299C39.8564 39.7399 40.4564 40.3699 41.0864 41.0099L41.3764 40.6299L47.1564 33.6999C47.4274 33.328 47.7824 33.0254 48.1926 32.8168C48.6027 32.6082 49.0563 32.4994 49.5164 32.4994C49.9766 32.4994 50.4302 32.6082 50.8403 32.8168C51.2505 33.0254 51.6055 33.328 51.8764 33.6999L56.0964 38.6199L56.9464 39.5499Z" fill="#F4533A"/>
<path d="M54.9866 52.8399C54.4266 54.5999 53.9366 56.3099 53.3366 57.9899C53.0107 58.8546 52.3699 59.5641 51.5426 59.9759C50.7153 60.3876 49.7629 60.4712 48.8766 60.2099L32.8766 55.9399C29.7266 55.0799 26.5566 54.1999 23.3766 53.3899C22.8522 53.2656 22.3592 53.0341 21.9288 52.7098C21.4984 52.3855 21.1399 51.9755 20.8759 51.5057C20.6118 51.0359 20.448 50.5165 20.3948 49.9802C20.3416 49.4439 20.4001 48.9024 20.5666 48.3899C21.8766 44.2099 23.0866 40.0099 24.3766 35.8199C24.4043 35.7038 24.4671 35.599 24.5566 35.5199C24.5566 35.6599 24.5566 35.7966 24.5566 35.9299C24.5566 39.4199 24.5566 42.9299 24.5566 46.3999C24.5389 47.2483 24.6928 48.0915 25.0091 48.879C25.3253 49.6664 25.7974 50.3819 26.397 50.9824C26.9965 51.5829 27.7113 52.0561 28.4982 52.3735C29.2852 52.691 30.1282 52.8462 30.9766 52.8299H54.9766L54.9866 52.8399Z" fill="#F4533A"/>
<path d="M35.3764 28.6699C36.035 28.6719 36.6782 28.8691 37.2247 29.2367C37.7713 29.6042 38.1965 30.1256 38.4467 30.7348C38.6969 31.3441 38.7609 32.0138 38.6304 32.6594C38.5 33.3049 38.1811 33.8973 37.714 34.3616C37.2469 34.8259 36.6526 35.1413 36.0062 35.2679C35.3599 35.3944 34.6905 35.3265 34.0828 35.0726C33.4751 34.8187 32.9563 34.3904 32.592 33.8416C32.2278 33.2929 32.0344 32.6485 32.0364 31.9899C32.0417 31.1076 32.3959 30.2632 33.0217 29.6411C33.6475 29.0191 34.494 28.6699 35.3764 28.6699Z" fill="#F4533A"/>
</g>
<defs>
<clipPath id="clip0_844_106">
<rect width="40" height="36.68" fill="white" transform="translate(20.3765 23.6599)"/>
</clipPath>
</defs>
</svg>
