<svg width="60" height="60" viewBox="0 0 60 60" fill="none" xmlns="http://www.w3.org/2000/svg">
<rect width="60" height="60" rx="30" fill="#F4EAFD"/>
<path d="M20 26.5691C20 25.3729 20.4824 24.6398 21.4806 24.0843L25.5899 21.7974C27.7431 20.5992 28.8197 20 30 20C31.1803 20 32.2569 20.5992 34.4101 21.7974L38.5194 24.0843C39.5176 24.6398 40 25.3729 40 26.5691C40 26.8934 40 27.0556 39.9646 27.1889C39.7785 27.8895 39.1437 28 38.5307 28H21.4693C20.8563 28 20.2215 27.8894 20.0354 27.1889C20 27.0556 20 26.8934 20 26.5691Z" stroke="#9846D7" stroke-width="1.5"/>
<path d="M22 28V36.5M26 28V36.5" stroke="#9846D7" stroke-width="1.5"/>
<path d="M29 36.5H23C21.3432 36.5 20 37.8431 20 39.5C20 39.7761 20.2239 40 20.5 40H29" stroke="#9846D7" stroke-width="1.5" stroke-linecap="round"/>
<path d="M39.5 32.5L32.5 39.5" stroke="#9846D7" stroke-width="1.5" stroke-linecap="round" stroke-linejoin="round"/>
<path d="M33.25 34C33.6642 34 34 33.6642 34 33.25C34 32.8358 33.6642 32.5 33.25 32.5C32.8358 32.5 32.5 32.8358 32.5 33.25C32.5 33.6642 32.8358 34 33.25 34Z" stroke="#9846D7" stroke-width="1.5"/>
<path d="M38.75 39.5C39.1642 39.5 39.5 39.1642 39.5 38.75C39.5 38.3358 39.1642 38 38.75 38C38.3358 38 38 38.3358 38 38.75C38 39.1642 38.3358 39.5 38.75 39.5Z" stroke="#9846D7" stroke-width="1.5"/>
</svg>
