<svg width="60" height="60" viewBox="0 0 60 60" fill="none" xmlns="http://www.w3.org/2000/svg">
<rect width="60" height="60" rx="30" fill="#F4EAFD"/>
<path d="M21.1641 29.3497L22 29.5587L22.4569 34.1005C22.715 36.6668 22.8441 37.9499 23.701 38.7249C24.5579 39.5 25.8475 39.5 28.4267 39.5H31.5733C34.1525 39.5 35.4421 39.5 36.299 38.7249C37.1559 37.9499 37.285 36.6668 37.5431 34.1005L38 29.5587L38.836 29.3497C39.5201 29.1787 40 28.564 40 27.8588C40 27.3573 39.7553 26.8874 39.3445 26.5998L31.1469 20.8615C30.4583 20.3795 29.5417 20.3795 28.8531 20.8615L20.6555 26.5998C20.2447 26.8874 20 27.3573 20 27.8588C20 28.564 20.4799 29.1787 21.1641 29.3497Z" stroke="#9846D7" stroke-width="1.5" stroke-linecap="round" stroke-linejoin="round"/>
<path d="M33 34C32.2005 34.6224 31.1502 35 30 35C28.8498 35 27.7995 34.6224 27 34" stroke="#9846D7" stroke-width="1.5" stroke-linecap="round"/>
</svg>
