<svg width="25" height="25" viewBox="0 0 25 25" fill="none" xmlns="http://www.w3.org/2000/svg">
<path d="M20.5402 7.31969L14.7802 3.28969C13.2102 2.18969 10.8002 2.24969 9.29023 3.41969L4.28023 7.32969C3.28023 8.10969 2.49023 9.70969 2.49023 10.9697V17.8697C2.49023 20.4197 4.56023 22.4997 7.11023 22.4997H17.8902C20.4402 22.4997 22.5102 20.4297 22.5102 17.8797V11.0997C22.5102 9.74969 21.6402 8.08969 20.5402 7.31969ZM13.2502 18.4997C13.2502 18.9097 12.9102 19.2497 12.5002 19.2497C12.0902 19.2497 11.7502 18.9097 11.7502 18.4997V15.4997C11.7502 15.0897 12.0902 14.7497 12.5002 14.7497C12.9102 14.7497 13.2502 15.0897 13.2502 15.4997V18.4997Z" fill="#9846D7"/>
</svg>
