<svg width="60" height="60" viewBox="0 0 60 60" fill="none" xmlns="http://www.w3.org/2000/svg">
<rect width="60" height="60" rx="30" fill="#F4EAFD"/>
<path d="M23 30C23 26.134 26.134 23 30 23C33.866 23 37 26.134 37 30V34.3333C37 35.8847 37 36.6604 36.7877 37.2858C36.388 38.4633 35.4633 39.388 34.2858 39.7877C33.6604 40 32.8847 40 31.3333 40H28.6667C27.1153 40 26.3396 40 25.7142 39.7877C24.5367 39.388 23.612 38.4633 23.2123 37.2858C23 36.6604 23 35.8847 23 34.3333V30Z" stroke="#9846D7" stroke-width="1.5" stroke-linejoin="round"/>
<path d="M23 35C24.65 33.17 27.1727 32 30 32C32.8273 32 35.35 33.17 37 35" stroke="#9846D7" stroke-width="1.5" stroke-linejoin="round"/>
<path d="M29 28H31" stroke="#9846D7" stroke-width="1.5" stroke-linecap="round"/>
<path d="M27 24V23C27 22.0681 27 21.6022 27.1522 21.2346C27.3552 20.7446 27.7446 20.3552 28.2346 20.1522C28.6022 20 29.0681 20 30 20C30.9319 20 31.3978 20 31.7654 20.1522C32.2554 20.3552 32.6448 20.7446 32.8478 21.2346C33 21.6022 33 22.0681 33 23V24" stroke="#9846D7" stroke-width="1.5"/>
<path d="M23 37H21.7143C20.7675 37 20 36.2325 20 35.2857V34C20 32.3431 21.3432 31 23 31" stroke="#9846D7" stroke-width="1.5"/>
<path d="M37 37H38.2857C39.2325 37 40 36.2325 40 35.2857V34C40 32.3431 38.6569 31 37 31" stroke="#9846D7" stroke-width="1.5"/>
</svg>
