<svg width="20" height="20" viewBox="0 0 20 20" fill="none" xmlns="http://www.w3.org/2000/svg">
<path d="M8.33398 11.0238C8.45198 11.2171 8.59207 11.4 8.75415 11.5687C9.7604 12.6159 11.2942 12.7797 12.4653 12.0598C12.6823 11.9264 12.8868 11.7628 13.0733 11.5687L15.7728 8.75918C16.9655 7.51788 16.9655 5.50531 15.7728 4.26399C14.5801 3.02268 12.6463 3.02268 11.4536 4.26399L10.859 4.88283" stroke="#5D5D5D" stroke-width="1.25" stroke-linecap="round"/>
<path d="M9.14257 15.1167L8.54774 15.7357C7.35504 16.977 5.42124 16.977 4.22853 15.7357C3.0358 14.4943 3.0358 12.4818 4.22853 11.2405L6.92804 8.431C8.12076 7.18967 10.0546 7.18966 11.2472 8.431C11.4093 8.59958 11.5493 8.7825 11.6673 8.97566" stroke="#5D5D5D" stroke-width="1.25" stroke-linecap="round"/>
</svg>
