<svg width="40" height="40" viewBox="0 0 40 40" fill="none" xmlns="http://www.w3.org/2000/svg">
<g filter="url(#filter0_b_123_5309)">
<rect x="0.5" y="0.5" width="39" height="39" rx="7.5" stroke="white"/>
<path d="M20 30C25.5228 30 30 25.5228 30 20C30 14.4771 25.5228 10 20 10C14.4771 10 10 14.4771 10 20C10 21.5997 10.3756 23.1116 11.0435 24.4525C11.2209 24.8088 11.28 25.2161 11.1771 25.6006L10.5815 27.8267C10.323 28.793 11.207 29.677 12.1733 29.4185L14.3994 28.8229C14.7839 28.72 15.1912 28.7791 15.5475 28.9565C16.8884 29.6244 18.4003 30 20 30Z" fill="white"/>
<path d="M23 20C23 20.5523 23.4477 21 24 21C24.5523 21 25 20.5523 25 20C25 19.4477 24.5523 19 24 19C23.4477 19 23 19.4477 23 20Z" fill="#9846D7"/>
<path d="M19 20C19 20.5523 19.4477 21 20 21C20.5523 21 21 20.5523 21 20C21 19.4477 20.5523 19 20 19C19.4477 19 19 19.4477 19 20Z" fill="#9846D7"/>
<path d="M15 20C15 20.5523 15.4477 21 16 21C16.5523 21 17 20.5523 17 20C17 19.4477 16.5523 19 16 19C15.4477 19 15 19.4477 15 20Z" fill="#9846D7"/>
</g>
<defs>
<filter id="filter0_b_123_5309" x="-4.44444" y="-4.44444" width="48.8889" height="48.8889" filterUnits="userSpaceOnUse" color-interpolation-filters="sRGB">
<feFlood flood-opacity="0" result="BackgroundImageFix"/>
<feGaussianBlur in="BackgroundImageFix" stdDeviation="2.22222"/>
<feComposite in2="SourceAlpha" operator="in" result="effect1_backgroundBlur_123_5309"/>
<feBlend mode="normal" in="SourceGraphic" in2="effect1_backgroundBlur_123_5309" result="shape"/>
</filter>
</defs>
</svg>
