<svg width="25" height="25" viewBox="0 0 25 25" fill="none" xmlns="http://www.w3.org/2000/svg">
<path d="M12.5206 3.41016C9.21058 3.41016 6.52058 6.10016 6.52058 9.41016V12.3002C6.52058 12.9102 6.26058 13.8402 5.95058 14.3602L4.80058 16.2702C4.09058 17.4502 4.58058 18.7602 5.88058 19.2002C10.1906 20.6402 14.8406 20.6402 19.1506 19.2002C20.3606 18.8002 20.8906 17.3702 20.2306 16.2702L19.0806 14.3602C18.7806 13.8402 18.5206 12.9102 18.5206 12.3002V9.41016C18.5206 6.11016 15.8206 3.41016 12.5206 3.41016Z" fill="#9846D7" stroke="#9846D7" stroke-width="1.5" stroke-miterlimit="10" stroke-linecap="round"/>
<path d="M14.3699 3.69945C14.0599 3.60945 13.7399 3.53945 13.4099 3.49945C12.4499 3.37945 11.5299 3.44945 10.6699 3.69945C10.9599 2.95945 11.6799 2.43945 12.5199 2.43945C13.3599 2.43945 14.0799 2.95945 14.3699 3.69945Z" stroke="#9846D7" stroke-width="1.5" stroke-miterlimit="10" stroke-linecap="round" stroke-linejoin="round"/>
<path d="M15.5195 19.5605C15.5195 21.2105 14.1695 22.5605 12.5195 22.5605C11.6995 22.5605 10.9395 22.2205 10.3995 21.6805C9.85953 21.1405 9.51953 20.3805 9.51953 19.5605" stroke="#9846D7" stroke-width="1.5" stroke-miterlimit="10"/>
</svg>
