<svg width="60" height="60" viewBox="0 0 60 60" fill="none" xmlns="http://www.w3.org/2000/svg">
<rect width="60" height="60" rx="30" fill="#F4EAFD"/>
<path d="M26 35H34" stroke="#9846D7" stroke-width="1.5" stroke-linecap="round" stroke-linejoin="round"/>
<path d="M26 31H30" stroke="#9846D7" stroke-width="1.5" stroke-linecap="round" stroke-linejoin="round"/>
<path d="M31 20.5V21C31 23.8284 31 25.2426 31.8787 26.1213C32.7574 27 34.1716 27 37 27H37.5M38 28.6569V32C38 35.7712 38 37.6569 36.8284 38.8284C35.6569 40 33.7712 40 30 40C26.2288 40 24.3431 40 23.1716 38.8284C22 37.6569 22 35.7712 22 32V27.4558C22 24.2108 22 22.5883 22.8861 21.4893C23.0651 21.2673 23.2673 21.0651 23.4893 20.8861C24.5883 20 26.2108 20 29.4558 20C30.1614 20 30.5141 20 30.8372 20.114C30.9044 20.1377 30.9702 20.165 31.0345 20.1957C31.3436 20.3435 31.593 20.593 32.0919 21.0919L36.8284 25.8284C37.4065 26.4065 37.6955 26.6955 37.8478 27.0631C38 27.4306 38 27.8394 38 28.6569Z" stroke="#9846D7" stroke-width="1.5" stroke-linecap="round" stroke-linejoin="round"/>
</svg>
