<svg width="71" height="70" viewBox="0 0 71 70" fill="none" xmlns="http://www.w3.org/2000/svg">
<path d="M4 35C4 17.603 18.103 3.5 35.5 3.5C52.897 3.5 67 17.603 67 35C67 52.397 52.897 66.5 35.5 66.5C18.103 66.5 4 52.397 4 35Z" fill="#FF6262"/>
<path d="M4 35C4 17.603 18.103 3.5 35.5 3.5C52.897 3.5 67 17.603 67 35C67 52.397 52.897 66.5 35.5 66.5C18.103 66.5 4 52.397 4 35Z" stroke="#FFDFDF" stroke-width="7"/>
<path d="M43.625 27.959L42.9537 38.8195C42.7821 41.5943 42.6964 42.9817 42.0009 43.9792C41.6569 44.4723 41.2143 44.8886 40.7008 45.2013C39.6623 45.834 38.2722 45.834 35.4921 45.834C32.7084 45.834 31.3165 45.834 30.2773 45.2001C29.7635 44.8868 29.3207 44.4699 28.9769 43.9759C28.2816 42.9768 28.1977 41.5874 28.03 38.8088L27.375 27.959" stroke="white" stroke-width="1.625" stroke-linecap="round"/>
<path d="M32.25 34.7129H38.75" stroke="white" stroke-width="1.625" stroke-linecap="round"/>
<path d="M33.875 38.959H37.125" stroke="white" stroke-width="1.625" stroke-linecap="round"/>
<path d="M25.75 27.9577H45.25M39.8935 27.9577L39.154 26.4321C38.6627 25.4186 38.417 24.9119 37.9933 24.5959C37.8994 24.5258 37.7998 24.4634 37.6957 24.4094C37.2265 24.166 36.6634 24.166 35.5372 24.166C34.3827 24.166 33.8055 24.166 33.3284 24.4196C33.2227 24.4759 33.1219 24.5407 33.0269 24.6136C32.5982 24.9424 32.3588 25.4677 31.88 26.5182L31.2238 27.9577" stroke="white" stroke-width="1.625" stroke-linecap="round"/>
</svg>
