<svg width="60" height="60" viewBox="0 0 60 60" fill="none" xmlns="http://www.w3.org/2000/svg">
<rect x="0.5" y="0.5" width="59" height="59" rx="29.5" stroke="#B0B0B0"/>
<path d="M31.1953 23.1055L30.4219 22.332C30.0703 22.0156 29.543 22.0156 29.2266 22.332L22.3711 29.1523C22.0547 29.5039 22.0547 30.0312 22.3711 30.3477L29.2266 37.2031C29.543 37.5195 30.0703 37.5195 30.4219 37.2031L31.1953 36.4297C31.5117 36.0781 31.5117 35.5508 31.1953 35.1992L26.9414 31.1562H37.0312C37.5234 31.1562 37.875 30.8047 37.875 30.3125V29.1875C37.875 28.7305 37.5234 28.3438 37.0312 28.3438H26.9414L31.1953 24.3359C31.5117 23.9844 31.5469 23.457 31.1953 23.1055Z" fill="#B0B0B0"/>
</svg>
