<svg width="40" height="40" viewBox="0 0 40 40" fill="none" xmlns="http://www.w3.org/2000/svg">
<path d="M28.7763 17.0267C30.5532 17.0443 32.2523 17.758 33.5088 19.0145C34.7653 20.271 35.479 21.9701 35.4967 23.7469C35.5192 25.5011 34.7899 27.1775 33.6037 28.4226C32.3239 29.7659 30.5962 30.4439 28.7763 30.4673C26.1121 30.5015 26.1089 34.636 28.7763 34.6017C34.7393 34.525 39.5543 29.7099 39.6311 23.7469C39.7078 17.7835 34.6237 12.9674 28.7763 12.8922C26.1089 12.8579 26.1121 16.9924 28.7763 17.0267ZM11.1428 30.4426C9.36588 30.425 7.66674 29.7113 6.41022 28.4548C5.1537 27.1983 4.44 25.4991 4.42238 23.7222C4.39984 21.968 5.12902 20.2917 6.31539 19.0463C7.59503 17.7031 9.32273 17.0253 11.1427 17.0019C13.8068 16.9676 13.8101 12.8331 11.1427 12.8674C5.17961 12.944 0.364605 17.759 0.287965 23.7222C0.211324 29.6856 5.29523 34.5019 11.1428 34.577C13.8101 34.6112 13.8068 30.4768 11.1428 30.4426Z" fill="white"/>
<path d="M13.2694 15.0078C13.2869 13.231 14.0006 11.5318 15.2571 10.2753C16.5136 9.01883 18.2127 8.30517 19.9896 8.28761C21.7438 8.26507 23.4201 8.99433 24.6653 10.1807C26.0086 11.4603 26.6865 13.1879 26.7099 15.0078C26.7442 17.6719 30.8787 17.6752 30.8444 15.0078C30.7677 9.04484 25.9526 4.22984 19.9896 4.1532C14.0262 4.07656 9.21014 9.16031 9.13498 15.0078C9.1006 17.6752 13.2351 17.6719 13.2694 15.0078Z" fill="white"/>
<path d="M21.2907 18.4788C21.9369 19.1249 21.9369 20.1724 21.2907 20.8185L16.4903 25.619C15.8442 26.2651 14.7967 26.2651 14.1506 25.619C13.5045 24.9727 13.5045 23.9252 14.1506 23.2792L18.9511 18.4788C19.5971 17.8326 20.6447 17.8326 21.2907 18.4788Z" fill="white"/>
<path d="M18.9516 18.4787C19.5975 17.8326 20.6451 17.8326 21.2911 18.4787L26.0917 23.2793C26.7377 23.9251 26.7377 24.9728 26.0917 25.619C25.4456 26.265 24.3979 26.265 23.752 25.619L18.9516 20.8186C18.3052 20.1724 18.3052 19.1249 18.9516 18.4787Z" fill="white"/>
<path d="M20.0799 24.7695C21.0163 24.7695 21.7753 25.5286 21.7753 26.4648V33.4213C21.7753 34.3575 21.0162 35.1165 20.0799 35.1165C19.1438 35.1165 18.3848 34.3575 18.3848 33.4213V26.4648C18.3848 25.5286 19.1439 24.7695 20.0799 24.7695Z" fill="white"/>
</svg>
