<svg width="101" height="100" viewBox="0 0 101 100" fill="none" xmlns="http://www.w3.org/2000/svg">
<rect x="1" y="0.5" width="99" height="99" rx="7.5" fill="white"/>
<rect x="1" y="0.5" width="99" height="99" rx="7.5" stroke="#D1D1D1"/>
<circle cx="50.499" cy="39.7412" r="25.7412" fill="#8E36A4" fill-opacity="0.07"/>
<path d="M60.2629 30.8652H40.7353C40.2451 30.8652 39.8477 31.2626 39.8477 31.7529V47.73C39.8477 48.2202 40.2451 48.6176 40.7353 48.6176H60.2629C60.7531 48.6176 61.1505 48.2202 61.1505 47.73V31.7529C61.1505 31.2626 60.7531 30.8652 60.2629 30.8652Z" stroke="url(#paint0_linear_1484_556)" stroke-width="2" stroke-linecap="round" stroke-linejoin="round"/>
<path d="M53.6049 37.9656C54.3402 37.9656 54.9363 37.3695 54.9363 36.6342C54.9363 35.8988 54.3402 35.3027 53.6049 35.3027C52.8695 35.3027 52.2734 35.8988 52.2734 36.6342C52.2734 37.3695 52.8695 37.9656 53.6049 37.9656Z" fill="url(#paint1_linear_1484_556)"/>
<path d="M52.6406 43.7357L55.491 40.8887C55.6574 40.7223 55.8831 40.6289 56.1184 40.6289C56.3537 40.6289 56.5794 40.7223 56.7459 40.8887L61.1495 45.2957" stroke="url(#paint2_linear_1484_556)" stroke-width="2" stroke-linecap="round" stroke-linejoin="round"/>
<path d="M39.8477 44.2554L45.8768 38.2252C45.9592 38.1426 46.0571 38.0772 46.1649 38.0325C46.2726 37.9878 46.3881 37.9648 46.5048 37.9648C46.6214 37.9648 46.7369 37.9878 46.8447 38.0325C46.9524 38.0772 47.0503 38.1426 47.1328 38.2252L57.5234 48.6169" stroke="url(#paint3_linear_1484_556)" stroke-width="2" stroke-linecap="round" stroke-linejoin="round"/>
<path d="M37.07 84.6324C36.5067 84.6324 36.0083 84.5174 35.575 84.2874C35.145 84.0541 34.8083 83.7291 34.565 83.3124C34.3217 82.8924 34.2 82.3991 34.2 81.8324V77.2874L35.26 77.2824V81.7774C35.26 82.0841 35.3117 82.3541 35.415 82.5874C35.5183 82.8208 35.6567 83.0158 35.83 83.1724C36.0033 83.3291 36.1967 83.4474 36.41 83.5274C36.6267 83.6074 36.8467 83.6474 37.07 83.6474C37.2967 83.6474 37.5167 83.6074 37.73 83.5274C37.9467 83.4441 38.1417 83.3241 38.315 83.1674C38.4883 83.0108 38.625 82.8158 38.725 82.5824C38.8283 82.3491 38.88 82.0808 38.88 81.7774V77.2824H39.94V81.8324C39.94 82.3958 39.8183 82.8874 39.575 83.3074C39.3317 83.7274 38.9933 84.0541 38.56 84.2874C38.13 84.5174 37.6333 84.6324 37.07 84.6324ZM43.8737 84.6324C43.357 84.6324 42.9237 84.5074 42.5737 84.2574C42.2237 84.0041 41.9587 83.6624 41.7787 83.2324C41.5987 82.8024 41.5087 82.3174 41.5087 81.7774C41.5087 81.2374 41.597 80.7524 41.7737 80.3224C41.9537 79.8924 42.217 79.5541 42.5637 79.3074C42.9137 79.0574 43.3437 78.9324 43.8537 78.9324C44.3603 78.9324 44.797 79.0574 45.1637 79.3074C45.5337 79.5541 45.8187 79.8924 46.0187 80.3224C46.2187 80.7491 46.3187 81.2341 46.3187 81.7774C46.3187 82.3174 46.2187 82.8041 46.0187 83.2374C45.822 83.6674 45.5403 84.0074 45.1737 84.2574C44.8103 84.5074 44.377 84.6324 43.8737 84.6324ZM41.3337 86.8824V79.0824H42.2637V82.9674H42.3837V86.8824H41.3337ZM43.7287 83.6874C44.062 83.6874 44.337 83.6024 44.5537 83.4324C44.7737 83.2624 44.937 83.0341 45.0437 82.7474C45.1537 82.4574 45.2087 82.1341 45.2087 81.7774C45.2087 81.4241 45.1537 81.1041 45.0437 80.8174C44.937 80.5308 44.772 80.3024 44.5487 80.1324C44.3253 79.9624 44.0403 79.8774 43.6937 79.8774C43.367 79.8774 43.097 79.9574 42.8837 80.1174C42.6737 80.2774 42.517 80.5008 42.4137 80.7874C42.3137 81.0741 42.2637 81.4041 42.2637 81.7774C42.2637 82.1508 42.3137 82.4808 42.4137 82.7674C42.5137 83.0541 42.672 83.2791 42.8887 83.4424C43.1053 83.6058 43.3853 83.6874 43.7287 83.6874ZM47.5227 84.4824V77.1324H48.5677V84.4824H47.5227ZM52.4141 84.6324C51.8741 84.6324 51.4058 84.5108 51.0091 84.2674C50.6125 84.0241 50.3058 83.6891 50.0891 83.2624C49.8758 82.8324 49.7691 82.3374 49.7691 81.7774C49.7691 81.2141 49.8791 80.7191 50.0991 80.2924C50.3191 79.8624 50.6275 79.5291 51.0241 79.2924C51.4208 79.0524 51.8841 78.9324 52.4141 78.9324C52.9541 78.9324 53.4225 79.0541 53.8191 79.2974C54.2158 79.5408 54.5225 79.8758 54.7391 80.3024C54.9558 80.7291 55.0641 81.2208 55.0641 81.7774C55.0641 82.3408 54.9541 82.8374 54.7341 83.2674C54.5175 83.6941 54.2108 84.0291 53.8141 84.2724C53.4175 84.5124 52.9508 84.6324 52.4141 84.6324ZM52.4141 83.6474C52.9308 83.6474 53.3158 83.4741 53.5691 83.1274C53.8258 82.7774 53.9541 82.3274 53.9541 81.7774C53.9541 81.2141 53.8241 80.7641 53.5641 80.4274C53.3075 80.0874 52.9241 79.9174 52.4141 79.9174C52.0641 79.9174 51.7758 79.9974 51.5491 80.1574C51.3225 80.3141 51.1541 80.5324 51.0441 80.8124C50.9341 81.0891 50.8791 81.4108 50.8791 81.7774C50.8791 82.3441 51.0091 82.7974 51.2691 83.1374C51.5291 83.4774 51.9108 83.6474 52.4141 83.6474ZM57.6879 84.6324C57.2879 84.6324 56.9529 84.5591 56.6829 84.4124C56.4129 84.2624 56.2079 84.0658 56.0679 83.8224C55.9312 83.5758 55.8629 83.3058 55.8629 83.0124C55.8629 82.7391 55.9112 82.4991 56.0079 82.2924C56.1046 82.0858 56.2479 81.9108 56.4379 81.7674C56.6279 81.6208 56.8612 81.5024 57.1379 81.4124C57.3779 81.3424 57.6496 81.2808 57.9529 81.2274C58.2562 81.1741 58.5746 81.1241 58.9079 81.0774C59.2446 81.0308 59.5779 80.9841 59.9079 80.9374L59.5279 81.1474C59.5346 80.7241 59.4446 80.4108 59.2579 80.2074C59.0746 80.0008 58.7579 79.8974 58.3079 79.8974C58.0246 79.8974 57.7646 79.9641 57.5279 80.0974C57.2912 80.2274 57.1262 80.4441 57.0329 80.7474L56.0579 80.4474C56.1912 79.9841 56.4446 79.6158 56.8179 79.3424C57.1946 79.0691 57.6946 78.9324 58.3179 78.9324C58.8012 78.9324 59.2212 79.0158 59.5779 79.1824C59.9379 79.3458 60.2012 79.6058 60.3679 79.9624C60.4546 80.1391 60.5079 80.3258 60.5279 80.5224C60.5479 80.7191 60.5579 80.9308 60.5579 81.1574V84.4824H59.6329V83.2474L59.8129 83.4074C59.5896 83.8208 59.3046 84.1291 58.9579 84.3324C58.6146 84.5324 58.1912 84.6324 57.6879 84.6324ZM57.8729 83.7774C58.1696 83.7774 58.4246 83.7258 58.6379 83.6224C58.8512 83.5158 59.0229 83.3808 59.1529 83.2174C59.2829 83.0541 59.3679 82.8841 59.4079 82.7074C59.4646 82.5474 59.4962 82.3674 59.5029 82.1674C59.5129 81.9674 59.5179 81.8074 59.5179 81.6874L59.8579 81.8124C59.5279 81.8624 59.2279 81.9074 58.9579 81.9474C58.6879 81.9874 58.4429 82.0274 58.2229 82.0674C58.0062 82.1041 57.8129 82.1491 57.6429 82.2024C57.4996 82.2524 57.3712 82.3124 57.2579 82.3824C57.1479 82.4524 57.0596 82.5374 56.9929 82.6374C56.9296 82.7374 56.8979 82.8591 56.8979 83.0024C56.8979 83.1424 56.9329 83.2724 57.0029 83.3924C57.0729 83.5091 57.1796 83.6024 57.3229 83.6724C57.4662 83.7424 57.6496 83.7774 57.8729 83.7774ZM64.0013 84.6324C63.4979 84.6324 63.0629 84.5074 62.6963 84.2574C62.3329 84.0074 62.0513 83.6674 61.8513 83.2374C61.6546 82.8041 61.5563 82.3174 61.5563 81.7774C61.5563 81.2341 61.6563 80.7491 61.8563 80.3224C62.0563 79.8924 62.3396 79.5541 62.7063 79.3074C63.0763 79.0574 63.5146 78.9324 64.0213 78.9324C64.5313 78.9324 64.9596 79.0574 65.3063 79.3074C65.6563 79.5541 65.9196 79.8924 66.0963 80.3224C66.2763 80.7524 66.3663 81.2374 66.3663 81.7774C66.3663 82.3174 66.2763 82.8024 66.0963 83.2324C65.9163 83.6624 65.6513 84.0041 65.3013 84.2574C64.9513 84.5074 64.5179 84.6324 64.0013 84.6324ZM64.1463 83.6874C64.4896 83.6874 64.7696 83.6058 64.9863 83.4424C65.2029 83.2791 65.3613 83.0541 65.4613 82.7674C65.5613 82.4808 65.6113 82.1508 65.6113 81.7774C65.6113 81.4041 65.5596 81.0741 65.4563 80.7874C65.3563 80.5008 65.1996 80.2774 64.9863 80.1174C64.7763 79.9574 64.5079 79.8774 64.1813 79.8774C63.8346 79.8774 63.5496 79.9624 63.3263 80.1324C63.1029 80.3024 62.9363 80.5308 62.8263 80.8174C62.7196 81.1041 62.6663 81.4241 62.6663 81.7774C62.6663 82.1341 62.7196 82.4574 62.8263 82.7474C62.9363 83.0341 63.0996 83.2624 63.3163 83.4324C63.5363 83.6024 63.8129 83.6874 64.1463 83.6874ZM65.6113 84.4824V80.5974H65.4913V77.2824H66.5413V84.4824H65.6113Z" fill="#8E36A4"/>
<defs>
<linearGradient id="paint0_linear_1484_556" x1="50.4991" y1="30.8652" x2="50.4991" y2="48.6176" gradientUnits="userSpaceOnUse">
<stop stop-color="#9846D7"/>
<stop offset="1" stop-color="#C490F0"/>
</linearGradient>
<linearGradient id="paint1_linear_1484_556" x1="53.6049" y1="35.3027" x2="53.6049" y2="37.9656" gradientUnits="userSpaceOnUse">
<stop stop-color="#9846D7"/>
<stop offset="1" stop-color="#C490F0"/>
</linearGradient>
<linearGradient id="paint2_linear_1484_556" x1="56.8951" y1="40.6289" x2="56.8951" y2="45.2957" gradientUnits="userSpaceOnUse">
<stop stop-color="#9846D7"/>
<stop offset="1" stop-color="#C490F0"/>
</linearGradient>
<linearGradient id="paint3_linear_1484_556" x1="48.6855" y1="37.9648" x2="48.6855" y2="48.6169" gradientUnits="userSpaceOnUse">
<stop stop-color="#9846D7"/>
<stop offset="1" stop-color="#C490F0"/>
</linearGradient>
</defs>
</svg>
